<svg width="700" height="700" xmlns="http://www.w3.org/2000/svg">
 <defs>
  <linearGradient y2="-0.01416" x2="0.5" y1="1.00861" x1="0.5" id="paint0_linear">
   <stop stop-color="#c50ed2"/>
   <stop stop-color="#8500f7" offset="1"/>
  </linearGradient>
 </defs>
 <g>
  <title>Layer 1</title>
  <path fill-rule="nonzero" fill="url(#paint0_linear)" id="Shape" d="m437.25183,43.22516c4.17409,-6.58275 11.6464,-10.96213 19.48822,-10.9895c10.9895,-0.02737 21.44526,6.14481 27.80905,14.93094c5.99427,8.40293 7.84182,19.02292 7.8555,29.16391c-0.0958,14.26035 -3.38033,28.27435 -7.2944,41.91885c-9.78517,32.20211 -23.07384,63.21357 -32.99586,95.37462c-10.93476,36.49937 -16.17633,77.17283 -1.49173,113.41218c7.6776,-21.43158 15.27308,-42.90421 22.9233,-64.36316c2.176,-5.66582 5.03628,-12.11171 11.11267,-14.43826c8.45767,-3.01082 17.07957,5.81636 16.83323,13.98664c-2.31286,11.90643 -6.80172,23.25175 -10.33259,34.82973c-28.61649,86.02738 -60.66806,170.86413 -91.52898,256.11143c41.04297,-37.52578 82.20912,-74.91471 123.30683,-112.37207c11.82432,-10.77053 24.64768,-22.49905 28.27435,-38.77117c3.61299,-15.97104 -3.10662,-31.81891 -10.72947,-45.53184c-8.79981,-16.36792 -20.03565,-31.92839 -24.16869,-50.34914c-2.0802,-9.53883 -1.45066,-20.51465 4.98154,-28.3291c4.63941,-5.88479 13.08339,-8.92298 20.21357,-6.04901c7.03437,2.68236 11.27689,9.44303 14.60248,15.8205c11.16741,22.40325 18.13336,46.8867 20.52833,71.80809c7.62285,-15.38256 15.34151,-30.71038 22.97804,-46.07925c4.61204,-9.05984 8.69033,-18.77658 16.17633,-25.93413c4.51623,-4.46149 11.09898,-7.26703 17.47645,-5.81636c7.99236,1.76544 13.60344,9.03247 15.75207,16.58689c2.43603,8.01974 -0.13685,16.36792 -2.72343,23.99078c-7.70496,21.3084 -19.80299,40.59135 -31.46308,59.88798c-16.25844,25.55092 -33.5296,50.486 -52.37461,74.20306c10.77053,-7.1986 22.11585,-14.76671 35.30873,-16.27212c12.48122,-1.66964 26.27626,5.63845 30.40929,17.81859c2.76448,8.29345 -1.71069,17.68174 -9.22406,21.73266c-11.01687,6.14481 -24.0592,6.0627 -36.30777,6.61012c-44.43699,1.21802 -87.75177,23.10121 -115.32816,57.93095c-21.76002,27.78167 -32.87269,62.29663 -54.96118,89.84565c-13.93189,16.79218 -33.60963,37.87081 -55.26226,33.21484c-28.83546,-6.2005 -28.83546,-51.26608 -36.02037,-73.60091c-3.70879,-11.2632 -10.66105,-21.55474 -20.30936,-28.57543c-8.4303,-6.22693 -18.53024,-9.79886 -28.73966,-11.75589c-23.42967,-4.50255 -47.59836,-2.12126 -70.97328,-6.95226c-11.70115,-2.38129 -23.22438,-7.07543 -32.16105,-15.16359c-8.51241,-7.47232 -14.3972,-17.47645 -18.4755,-27.9459c-8.81349,-22.80013 -10.6063,-47.54361 -18.43444,-70.63114c-11.33164,-33.24221 -33.74857,-62.62509 -62.95354,-82.14069c-6.1585,-4.16041 -12.85073,-8.21133 -16.83323,-14.69828c-3.24348,-5.06366 -2.95608,-12.26226 1.28644,-16.68269c7.15755,-7.78708 20.09039,-8.4303 28.35647,-1.98441c16.94271,12.01592 19.39243,35.36347 35.18555,48.43318c0.02738,-21.56844 -0.08211,-43.12318 -0.12317,-64.67793c0.05475,-6.22692 -0.64322,-12.93285 2.47709,-18.59866c2.83291,-5.36474 10.67473,-6.81541 15.23202,-2.79186c6.1585,5.15946 8.03342,13.57607 8.90929,21.19893c3.06557,29.71133 6.02165,59.43635 9.1009,89.16137c15.47836,-13.90452 22.59484,-36.472 17.58593,-56.71293c-1.51909,-6.45958 -3.98249,-13.11076 -2.58657,-19.81668c1.1359,-5.62476 7.1028,-9.57989 12.72757,-8.58084c6.32272,0.86219 10.83896,6.28167 13.20655,11.85169c3.77722,9.22406 3.7909,19.50191 3.02451,29.30077c-2.24443,22.32113 -11.68746,42.93158 -18.20178,64.17155c-6.3501,18.74921 -10.71579,39.57862 -4.35201,58.94368c5.66582,18.10599 20.03565,32.42107 36.89625,40.53661c20.81573,10.22311 44.25908,13.39815 67.19607,14.3014c-13.94558,-24.40134 -29.10917,-50.22598 -28.84915,-79.25304c0.27371,-29.23234 18.85869,-53.85265 23.88129,-82.05857c8.55347,-46.80459 -12.56334,-97.67379 -51.88193,-124.52485c-17.46276,-12.00223 -38.42903,-17.33959 -56.37079,-28.46595c-16.23107,-9.93571 -30.80618,-27.61744 -28.26067,-47.74889c12.33068,-4.77626 26.09835,-1.72438 37.2247,4.68046c21.74635,11.60535 35.58244,33.61171 57.43827,45.03915c7.67759,4.18778 16.47741,6.2543 25.22247,5.72056c4.7352,-11.34532 0,-24.0592 -7.63653,-32.90007c-14.36983,-17.31222 -38.62064,-21.51369 -53.64737,-38.05952c-7.52706,-8.63558 -11.72852,-20.97995 -8.56716,-32.27053c2.57289,-8.92298 11.81063,-14.99937 21.00733,-14.32878c13.61712,0.84851 25.34564,9.37461 34.65182,18.7629c30.80618,30.79249 48.52897,72.67028 55.48123,115.23235c8.21133,50.19861 1.83386,101.40995 -8.27976,150.84217c-1.88861,10.07256 -5.41948,20.40516 -2.80554,30.683c1.12222,4.76258 4.55729,9.67569 9.82623,10.09994c7.25334,0.46531 13.24761,-4.47517 18.53023,-8.79981c16.51847,-13.49395 29.64291,-31.65468 35.06239,-52.45672c4.22884,-15.16359 4.35201,-31.03884 4.05093,-46.65405c0.08211,-7.81445 -0.49269,-16.43635 4.17409,-23.19701c3.33927,-5.22788 9.5662,-9.33355 15.97104,-7.81445c5.0226,0.95799 8.58084,5.30999 10.11362,9.97676c2.4634,7.6776 2.09389,15.97104 0.60217,23.81287c-4.72152,21.62317 -8.99141,43.53374 -17.54488,64.06207c-6.03533,14.73934 -14.19192,28.75335 -25.23616,40.30395c-12.18014,12.90548 -27.22057,23.25176 -37.03311,38.29218c-6.69223,10.27785 -11.01687,23.04647 -8.11553,35.32241c2.12126,9.79886 9.57989,17.79122 18.5713,21.86952c13.09707,5.98058 28.99968,5.6795 41.7683,-1.05379c10.12731,-5.47422 17.32591,-14.94463 23.06016,-24.67505c10.09994,-17.50383 16.21738,-36.93731 21.29472,-56.39817c7.81445,-31.42203 12.41279,-63.63782 14.21929,-95.9631c2.06652,-34.52864 -4.20147,-70.23425 -21.60949,-100.39721c-9.25143,-16.14895 -22.33482,-29.90293 -37.62158,-40.42712c-13.76767,-10.2368 -28.90389,-19.10504 -40.0713,-32.36634c-10.44208,-12.28962 -17.68174,-28.87651 -13.87715,-45.18969c7.14386,-4.48886 16.16263,-5.26894 24.07288,-2.4634c14.93094,5.07734 26.6184,17.06588 34.15914,30.62827c10.2368,15.98472 18.77658,35.00764 36.81414,43.68428c-14.67091,-28.86283 -29.80713,-57.47932 -44.65596,-86.24635c-4.831,-9.71675 -9.59357,-20.33674 -8.3345,-31.4494c0.91693,-8.47136 8.78612,-15.42362 17.28485,-15.38256c7.54074,0.02737 14.61617,4.26989 19.10504,10.18205c5.13208,6.65117 7.58179,14.84882 9.89465,22.81381c11.838,41.19352 23.66232,82.37334 35.54138,123.55317c14.93094,-28.43857 21.23998,-61.39339 16.99746,-93.3081c-1.86124,-16.91534 -6.82909,-33.25589 -10.77053,-49.76067c-2.68237,-10.7979 -1.87492,-22.90961 4.28358,-32.42107z"/>
 </g>
</svg>