<svg width="4697.168" height="1381.15" viewBox="0 0 4697.168 681.15" xmlns="http://www.w3.org/2000/svg" style="filter: drop-shadow(0 0 30rem #161925AA);">
<g style="transform: scale(0.8); transform-origin: center;">
<g id="svgGroup1" stroke-linecap="round" fill-rule="evenodd" font-size="9pt" stroke="#E91E63" stroke-width="0.25mm" fill="#E91E63" style="stroke:#E91E63;stroke-width:0.25mm;fill:#E91E63"><path d="M 0 113.525 L 0 0 L 53.711 0 L 53.711 113.525 L 0 113.525 Z" id="0" vector-effect="non-scaling-stroke"/><path d="M 51.758 113.525 L 51.758 0 L 105.469 0 L 105.469 113.525 L 51.758 113.525 Z" id="1" vector-effect="non-scaling-stroke"/><path d="M 103.516 113.525 L 103.516 0 L 157.227 0 L 157.227 113.525 L 103.516 113.525 Z" id="2" vector-effect="non-scaling-stroke"/><path d="M 155.273 113.525 L 155.273 0 L 208.984 0 L 208.984 113.525 L 155.273 113.525 Z" id="3" vector-effect="non-scaling-stroke"/><path d="M 207.031 113.525 L 207.031 0 L 260.742 0 L 260.742 113.525 L 207.031 113.525 Z" id="4" vector-effect="non-scaling-stroke"/><path d="M 258.789 113.525 L 258.789 0 L 312.5 0 L 312.5 113.525 L 258.789 113.525 Z" id="5" vector-effect="non-scaling-stroke"/><path d="M 341.455 113.525 L 341.455 59.375 L 310.547 59.375 L 310.547 51.27 L 349.512 51.27 L 349.512 113.525 L 341.455 113.525 Z M 325.342 113.525 L 325.342 75.537 L 310.547 75.537 L 310.547 67.432 L 333.398 67.432 L 333.398 113.525 L 325.342 113.525 Z" id="6" vector-effect="non-scaling-stroke"/><path d="M 414.063 113.525 L 414.063 0 L 467.773 0 L 467.773 113.525 L 414.063 113.525 Z" id="8" vector-effect="non-scaling-stroke"/><path d="M 465.82 113.525 L 465.82 0 L 519.531 0 L 519.531 113.525 L 465.82 113.525 Z" id="9" vector-effect="non-scaling-stroke"/><path d="M 517.578 113.525 L 517.578 0 L 571.289 0 L 571.289 113.525 L 517.578 113.525 Z" id="10" vector-effect="non-scaling-stroke"/><path d="M 569.336 113.525 L 569.336 0 L 623.047 0 L 623.047 113.525 L 569.336 113.525 Z" id="11" vector-effect="non-scaling-stroke"/><path d="M 621.094 113.525 L 621.094 0 L 674.805 0 L 674.805 113.525 L 621.094 113.525 Z" id="12" vector-effect="non-scaling-stroke"/><path d="M 672.852 113.525 L 672.852 0 L 726.563 0 L 726.563 113.525 L 672.852 113.525 Z" id="13" vector-effect="non-scaling-stroke"/><path d="M 755.518 113.525 L 755.518 59.375 L 724.609 59.375 L 724.609 51.27 L 763.574 51.27 L 763.574 113.525 L 755.518 113.525 Z M 739.404 113.525 L 739.404 75.537 L 724.609 75.537 L 724.609 67.432 L 747.461 67.432 L 747.461 113.525 L 739.404 113.525 Z" id="14" vector-effect="non-scaling-stroke"/><path d="M 879.883 113.525 L 879.883 0 L 933.594 0 L 933.594 113.525 L 879.883 113.525 Z" id="17" vector-effect="non-scaling-stroke"/><path d="M 931.641 113.525 L 931.641 0 L 985.352 0 L 985.352 113.525 L 931.641 113.525 Z" id="18" vector-effect="non-scaling-stroke"/><path d="M 983.398 113.525 L 983.398 0 L 1037.109 0 L 1037.109 113.525 L 983.398 113.525 Z" id="19" vector-effect="non-scaling-stroke"/><path d="M 1035.156 113.525 L 1035.156 0 L 1088.867 0 L 1088.867 113.525 L 1035.156 113.525 Z" id="20" vector-effect="non-scaling-stroke"/><path d="M 1086.914 113.525 L 1086.914 0 L 1140.625 0 L 1140.625 113.525 L 1086.914 113.525 Z" id="21" vector-effect="non-scaling-stroke"/><path d="M 1138.672 113.525 L 1138.672 0 L 1192.383 0 L 1192.383 113.525 L 1138.672 113.525 Z" id="22" vector-effect="non-scaling-stroke"/><path d="M 1221.338 113.525 L 1221.338 59.375 L 1190.43 59.375 L 1190.43 51.27 L 1229.395 51.27 L 1229.395 113.525 L 1221.338 113.525 Z M 1205.225 113.525 L 1205.225 75.537 L 1190.43 75.537 L 1190.43 67.432 L 1213.281 67.432 L 1213.281 113.525 L 1205.225 113.525 Z" id="23" vector-effect="non-scaling-stroke"/><path d="M 1293.945 113.525 L 1293.945 0 L 1347.656 0 L 1347.656 113.525 L 1293.945 113.525 Z" id="25" vector-effect="non-scaling-stroke"/><path d="M 1345.703 113.525 L 1345.703 0 L 1399.414 0 L 1399.414 113.525 L 1345.703 113.525 Z" id="26" vector-effect="non-scaling-stroke"/><path d="M 1428.369 113.525 L 1428.369 59.375 L 1397.461 59.375 L 1397.461 51.27 L 1436.426 51.27 L 1436.426 113.525 L 1428.369 113.525 Z M 1412.256 113.525 L 1412.256 75.537 L 1397.461 75.537 L 1397.461 67.432 L 1420.313 67.432 L 1420.313 113.525 L 1412.256 113.525 Z" id="27" vector-effect="non-scaling-stroke"/><path d="M 1552.734 113.525 L 1552.734 0 L 1606.445 0 L 1606.445 113.525 L 1552.734 113.525 Z" id="30" vector-effect="non-scaling-stroke"/><path d="M 1604.492 113.525 L 1604.492 0 L 1658.203 0 L 1658.203 113.525 L 1604.492 113.525 Z" id="31" vector-effect="non-scaling-stroke"/><path d="M 1687.158 113.525 L 1687.158 59.375 L 1656.25 59.375 L 1656.25 51.27 L 1695.215 51.27 L 1695.215 113.525 L 1687.158 113.525 Z M 1671.045 113.525 L 1671.045 75.537 L 1656.25 75.537 L 1656.25 67.432 L 1679.102 67.432 L 1679.102 113.525 L 1671.045 113.525 Z" id="32" vector-effect="non-scaling-stroke"/><path d="M 1708.008 113.525 L 1708.008 0 L 1761.719 0 L 1761.719 113.525 L 1708.008 113.525 Z" id="33" vector-effect="non-scaling-stroke"/><path d="M 1759.766 113.525 L 1759.766 0 L 1813.477 0 L 1813.477 113.525 L 1759.766 113.525 Z" id="34" vector-effect="non-scaling-stroke"/><path d="M 1842.432 113.525 L 1842.432 59.375 L 1811.523 59.375 L 1811.523 51.27 L 1850.488 51.27 L 1850.488 113.525 L 1842.432 113.525 Z M 1826.318 113.525 L 1826.318 75.537 L 1811.523 75.537 L 1811.523 67.432 L 1834.375 67.432 L 1834.375 113.525 L 1826.318 113.525 Z" id="35" vector-effect="non-scaling-stroke"/><path d="M 2018.555 113.525 L 2018.555 0 L 2072.266 0 L 2072.266 113.525 L 2018.555 113.525 Z" id="39" vector-effect="non-scaling-stroke"/><path d="M 2070.313 113.525 L 2070.313 0 L 2124.023 0 L 2124.023 113.525 L 2070.313 113.525 Z" id="40" vector-effect="non-scaling-stroke"/><path d="M 2152.979 113.525 L 2152.979 59.375 L 2122.07 59.375 L 2122.07 51.27 L 2161.035 51.27 L 2161.035 113.525 L 2152.979 113.525 Z M 2136.865 113.525 L 2136.865 75.537 L 2122.07 75.537 L 2122.07 67.432 L 2144.922 67.432 L 2144.922 113.525 L 2136.865 113.525 Z" id="41" vector-effect="non-scaling-stroke"/><path d="M 2173.828 113.525 L 2173.828 56.738 L 2227.539 56.738 L 2227.539 113.525 L 2173.828 113.525 Z" id="42" vector-effect="non-scaling-stroke"/><path d="M 2225.586 113.525 L 2225.586 0 L 2279.297 0 L 2279.297 113.525 L 2225.586 113.525 Z" id="43" vector-effect="non-scaling-stroke"/><path d="M 2308.252 113.525 L 2308.252 59.375 L 2277.344 59.375 L 2277.344 51.27 L 2316.309 51.27 L 2316.309 113.525 L 2308.252 113.525 Z M 2292.139 113.525 L 2292.139 75.537 L 2277.344 75.537 L 2277.344 67.432 L 2300.195 67.432 L 2300.195 113.525 L 2292.139 113.525 Z" id="44" vector-effect="non-scaling-stroke"/><path d="M 2329.102 113.525 L 2329.102 0 L 2382.813 0 L 2382.813 113.525 L 2329.102 113.525 Z" id="45" vector-effect="non-scaling-stroke"/><path d="M 2380.859 113.525 L 2380.859 0 L 2434.57 0 L 2434.57 113.525 L 2380.859 113.525 Z" id="46" vector-effect="non-scaling-stroke"/><path d="M 2432.617 113.525 L 2432.617 0 L 2486.328 0 L 2486.328 113.525 L 2432.617 113.525 Z" id="47" vector-effect="non-scaling-stroke"/><path d="M 2484.375 113.525 L 2484.375 0 L 2538.086 0 L 2538.086 113.525 L 2484.375 113.525 Z" id="48" vector-effect="non-scaling-stroke"/><path d="M 2536.133 113.525 L 2536.133 0 L 2589.844 0 L 2589.844 113.525 L 2536.133 113.525 Z" id="49" vector-effect="non-scaling-stroke"/><path d="M 2587.891 113.525 L 2587.891 0 L 2641.602 0 L 2641.602 113.525 L 2587.891 113.525 Z" id="50" vector-effect="non-scaling-stroke"/><path d="M 2639.648 113.525 L 2639.648 0 L 2693.359 0 L 2693.359 113.525 L 2639.648 113.525 Z" id="51" vector-effect="non-scaling-stroke"/><path d="M 2722.314 113.525 L 2722.314 59.375 L 2691.406 59.375 L 2691.406 51.27 L 2730.371 51.27 L 2730.371 113.525 L 2722.314 113.525 Z M 2706.201 113.525 L 2706.201 75.537 L 2691.406 75.537 L 2691.406 67.432 L 2714.258 67.432 L 2714.258 113.525 L 2706.201 113.525 Z" id="52" vector-effect="non-scaling-stroke"/><path d="M 2950.195 113.525 L 2950.195 0 L 3003.906 0 L 3003.906 113.525 L 2950.195 113.525 Z" id="57" vector-effect="non-scaling-stroke"/><path d="M 3001.953 113.525 L 3001.953 0 L 3055.664 0 L 3055.664 113.525 L 3001.953 113.525 Z" id="58" vector-effect="non-scaling-stroke"/><path d="M 3053.711 113.525 L 3053.711 0 L 3107.422 0 L 3107.422 113.525 L 3053.711 113.525 Z" id="59" vector-effect="non-scaling-stroke"/><path d="M 3105.469 113.525 L 3105.469 0 L 3159.18 0 L 3159.18 113.525 L 3105.469 113.525 Z" id="60" vector-effect="non-scaling-stroke"/><path d="M 3157.227 113.525 L 3157.227 0 L 3210.938 0 L 3210.938 113.525 L 3157.227 113.525 Z" id="61" vector-effect="non-scaling-stroke"/><path d="M 3208.984 113.525 L 3208.984 0 L 3262.695 0 L 3262.695 113.525 L 3208.984 113.525 Z" id="62" vector-effect="non-scaling-stroke"/><path d="M 3291.65 113.525 L 3291.65 59.375 L 3260.742 59.375 L 3260.742 51.27 L 3299.707 51.27 L 3299.707 113.525 L 3291.65 113.525 Z M 3275.537 113.525 L 3275.537 75.537 L 3260.742 75.537 L 3260.742 67.432 L 3283.594 67.432 L 3283.594 113.525 L 3275.537 113.525 Z" id="63" vector-effect="non-scaling-stroke"/><path d="M 3416.016 113.525 L 3416.016 0 L 3469.727 0 L 3469.727 113.525 L 3416.016 113.525 Z" id="66" vector-effect="non-scaling-stroke"/><path d="M 3467.773 113.525 L 3467.773 0 L 3521.484 0 L 3521.484 113.525 L 3467.773 113.525 Z" id="67" vector-effect="non-scaling-stroke"/><path d="M 3519.531 113.525 L 3519.531 0 L 3573.242 0 L 3573.242 113.525 L 3519.531 113.525 Z" id="68" vector-effect="non-scaling-stroke"/><path d="M 3571.289 113.525 L 3571.289 0 L 3625 0 L 3625 113.525 L 3571.289 113.525 Z" id="69" vector-effect="non-scaling-stroke"/><path d="M 3623.047 113.525 L 3623.047 0 L 3676.758 0 L 3676.758 113.525 L 3623.047 113.525 Z" id="70" vector-effect="non-scaling-stroke"/><path d="M 3674.805 113.525 L 3674.805 0 L 3728.516 0 L 3728.516 113.525 L 3674.805 113.525 Z" id="71" vector-effect="non-scaling-stroke"/><path d="M 3757.471 113.525 L 3757.471 59.375 L 3726.563 59.375 L 3726.563 51.27 L 3765.527 51.27 L 3765.527 113.525 L 3757.471 113.525 Z M 3741.357 113.525 L 3741.357 75.537 L 3726.563 75.537 L 3726.563 67.432 L 3749.414 67.432 L 3749.414 113.525 L 3741.357 113.525 Z" id="72" vector-effect="non-scaling-stroke"/><path d="M 3830.078 113.525 L 3830.078 0 L 3883.789 0 L 3883.789 113.525 L 3830.078 113.525 Z" id="74" vector-effect="non-scaling-stroke"/><path d="M 3881.836 113.525 L 3881.836 0 L 3935.547 0 L 3935.547 113.525 L 3881.836 113.525 Z" id="75" vector-effect="non-scaling-stroke"/><path d="M 3933.594 113.525 L 3933.594 0 L 3987.305 0 L 3987.305 113.525 L 3933.594 113.525 Z" id="76" vector-effect="non-scaling-stroke"/><path d="M 3985.352 113.525 L 3985.352 0 L 4039.063 0 L 4039.063 113.525 L 3985.352 113.525 Z" id="77" vector-effect="non-scaling-stroke"/><path d="M 4037.109 113.525 L 4037.109 0 L 4090.82 0 L 4090.82 113.525 L 4037.109 113.525 Z" id="78" vector-effect="non-scaling-stroke"/><path d="M 4088.867 113.525 L 4088.867 0 L 4142.578 0 L 4142.578 113.525 L 4088.867 113.525 Z" id="79" vector-effect="non-scaling-stroke"/><path d="M 4140.625 113.525 L 4140.625 0 L 4194.336 0 L 4194.336 113.525 L 4140.625 113.525 Z" id="80" vector-effect="non-scaling-stroke"/><path d="M 4192.383 113.525 L 4192.383 0 L 4246.094 0 L 4246.094 113.525 L 4192.383 113.525 Z" id="81" vector-effect="non-scaling-stroke"/><path d="M 4275.049 113.525 L 4275.049 59.375 L 4244.141 59.375 L 4244.141 51.27 L 4283.105 51.27 L 4283.105 113.525 L 4275.049 113.525 Z M 4258.936 113.525 L 4258.936 75.537 L 4244.141 75.537 L 4244.141 67.432 L 4266.992 67.432 L 4266.992 113.525 L 4258.936 113.525 Z" id="82" vector-effect="non-scaling-stroke"/><path d="M 4295.898 113.525 L 4295.898 0 L 4349.609 0 L 4349.609 113.525 L 4295.898 113.525 Z" id="83" vector-effect="non-scaling-stroke"/><path d="M 4347.656 113.525 L 4347.656 0 L 4401.367 0 L 4401.367 113.525 L 4347.656 113.525 Z" id="84" vector-effect="non-scaling-stroke"/><path d="M 4399.414 113.525 L 4399.414 0 L 4453.125 0 L 4453.125 113.525 L 4399.414 113.525 Z" id="85" vector-effect="non-scaling-stroke"/><path d="M 4451.172 113.525 L 4451.172 0 L 4504.883 0 L 4504.883 113.525 L 4451.172 113.525 Z" id="86" vector-effect="non-scaling-stroke"/><path d="M 4502.93 113.525 L 4502.93 0 L 4556.641 0 L 4556.641 113.525 L 4502.93 113.525 Z" id="87" vector-effect="non-scaling-stroke"/><path d="M 4554.688 113.525 L 4554.688 0 L 4608.398 0 L 4608.398 113.525 L 4554.688 113.525 Z" id="88" vector-effect="non-scaling-stroke"/><path d="M 4606.445 113.525 L 4606.445 0 L 4660.156 0 L 4660.156 113.525 L 4606.445 113.525 Z" id="89" vector-effect="non-scaling-stroke"/><path d="M 4689.111 113.525 L 4689.111 59.375 L 4658.203 59.375 L 4658.203 51.27 L 4697.168 51.27 L 4697.168 113.525 L 4689.111 113.525 Z M 4672.998 113.525 L 4672.998 75.537 L 4658.203 75.537 L 4658.203 67.432 L 4681.055 67.432 L 4681.055 113.525 L 4672.998 113.525 Z" id="90" vector-effect="non-scaling-stroke"/></g>

<g transform="translate(0, 113.525)" id="svgGroup2" stroke-linecap="round" fill-rule="evenodd" font-size="9pt" stroke="#9C27B0" stroke-width="0.25mm" fill="#9C27B0" style="stroke:#9C27B0;stroke-width:0.25mm;fill:#9C27B0"><path d="M 0 113.525 L 0 0 L 53.711 0 L 53.711 113.525 L 0 113.525 Z" id="0" vector-effect="non-scaling-stroke"/><path d="M 51.758 113.525 L 51.758 0 L 105.469 0 L 105.469 113.525 L 51.758 113.525 Z" id="1" vector-effect="non-scaling-stroke"/><path d="M 118.311 51.27 L 157.227 51.27 L 157.227 59.375 L 126.367 59.375 L 126.367 113.525 L 118.311 113.525 L 118.311 51.27 Z M 134.424 113.525 L 134.424 67.432 L 157.227 67.432 L 157.227 75.537 L 142.48 75.537 L 142.48 113.525 L 134.424 113.525 Z" id="2" vector-effect="non-scaling-stroke"/><path d="M 155.273 59.375 L 155.273 51.27 L 208.984 51.27 L 208.984 59.375 L 155.273 59.375 Z M 155.273 75.537 L 155.273 67.432 L 208.984 67.432 L 208.984 75.537 L 155.273 75.537 Z" id="3" vector-effect="non-scaling-stroke"/><path d="M 207.031 59.375 L 207.031 51.27 L 260.742 51.27 L 260.742 59.375 L 207.031 59.375 Z M 207.031 75.537 L 207.031 67.432 L 260.742 67.432 L 260.742 75.537 L 207.031 75.537 Z" id="4" vector-effect="non-scaling-stroke"/><path d="M 258.789 113.525 L 258.789 0 L 312.5 0 L 312.5 113.525 L 258.789 113.525 Z" id="5" vector-effect="non-scaling-stroke"/><path d="M 310.547 113.525 L 310.547 0 L 364.258 0 L 364.258 113.525 L 310.547 113.525 Z" id="6" vector-effect="non-scaling-stroke"/><path d="M 393.213 113.525 L 393.213 59.375 L 362.305 59.375 L 362.305 51.27 L 401.27 51.27 L 401.27 113.525 L 393.213 113.525 Z M 377.1 113.525 L 377.1 75.537 L 362.305 75.537 L 362.305 67.432 L 385.156 67.432 L 385.156 113.525 L 377.1 113.525 Z" id="7" vector-effect="non-scaling-stroke"/><path d="M 414.063 113.525 L 414.063 0 L 467.773 0 L 467.773 113.525 L 414.063 113.525 Z" id="8" vector-effect="non-scaling-stroke"/><path d="M 465.82 113.525 L 465.82 0 L 519.531 0 L 519.531 113.525 L 465.82 113.525 Z" id="9" vector-effect="non-scaling-stroke"/><path d="M 532.373 51.27 L 571.289 51.27 L 571.289 59.375 L 540.43 59.375 L 540.43 113.525 L 532.373 113.525 L 532.373 51.27 Z M 548.486 113.525 L 548.486 67.432 L 571.289 67.432 L 571.289 75.537 L 556.543 75.537 L 556.543 113.525 L 548.486 113.525 Z" id="10" vector-effect="non-scaling-stroke"/><path d="M 569.336 59.375 L 569.336 51.27 L 623.047 51.27 L 623.047 59.375 L 569.336 59.375 Z M 569.336 75.537 L 569.336 67.432 L 623.047 67.432 L 623.047 75.537 L 569.336 75.537 Z" id="11" vector-effect="non-scaling-stroke"/><path d="M 621.094 59.375 L 621.094 51.27 L 674.805 51.27 L 674.805 59.375 L 621.094 59.375 Z M 621.094 75.537 L 621.094 67.432 L 674.805 67.432 L 674.805 75.537 L 621.094 75.537 Z" id="12" vector-effect="non-scaling-stroke"/><path d="M 672.852 113.525 L 672.852 0 L 726.563 0 L 726.563 113.525 L 672.852 113.525 Z" id="13" vector-effect="non-scaling-stroke"/><path d="M 724.609 113.525 L 724.609 0 L 778.32 0 L 778.32 113.525 L 724.609 113.525 Z" id="14" vector-effect="non-scaling-stroke"/><path d="M 807.275 113.525 L 807.275 59.375 L 776.367 59.375 L 776.367 51.27 L 815.332 51.27 L 815.332 113.525 L 807.275 113.525 Z M 791.162 113.525 L 791.162 75.537 L 776.367 75.537 L 776.367 67.432 L 799.219 67.432 L 799.219 113.525 L 791.162 113.525 Z" id="15" vector-effect="non-scaling-stroke"/><path d="M 828.125 113.525 L 828.125 0 L 881.836 0 L 881.836 113.525 L 828.125 113.525 Z" id="16" vector-effect="non-scaling-stroke"/><path d="M 879.883 113.525 L 879.883 0 L 933.594 0 L 933.594 113.525 L 879.883 113.525 Z" id="17" vector-effect="non-scaling-stroke"/><path d="M 946.436 51.27 L 985.352 51.27 L 985.352 59.375 L 954.492 59.375 L 954.492 113.525 L 946.436 113.525 L 946.436 51.27 Z M 962.549 113.525 L 962.549 67.432 L 985.352 67.432 L 985.352 75.537 L 970.605 75.537 L 970.605 113.525 L 962.549 113.525 Z" id="18" vector-effect="non-scaling-stroke"/><path d="M 983.398 59.375 L 983.398 51.27 L 1037.109 51.27 L 1037.109 59.375 L 983.398 59.375 Z M 983.398 75.537 L 983.398 67.432 L 1037.109 67.432 L 1037.109 75.537 L 983.398 75.537 Z" id="19" vector-effect="non-scaling-stroke"/><path d="M 1035.156 113.525 L 1035.156 0 L 1088.867 0 L 1088.867 113.525 L 1035.156 113.525 Z" id="20" vector-effect="non-scaling-stroke"/><path d="M 1086.914 113.525 L 1086.914 0 L 1140.625 0 L 1140.625 113.525 L 1086.914 113.525 Z" id="21" vector-effect="non-scaling-stroke"/><path d="M 1138.672 113.525 L 1138.672 0 L 1192.383 0 L 1192.383 113.525 L 1138.672 113.525 Z" id="22" vector-effect="non-scaling-stroke"/><path d="M 1190.43 113.525 L 1190.43 0 L 1244.141 0 L 1244.141 113.525 L 1190.43 113.525 Z" id="23" vector-effect="non-scaling-stroke"/><path d="M 1273.096 113.525 L 1273.096 59.375 L 1242.188 59.375 L 1242.188 51.27 L 1281.152 51.27 L 1281.152 113.525 L 1273.096 113.525 Z M 1256.982 113.525 L 1256.982 75.537 L 1242.188 75.537 L 1242.188 67.432 L 1265.039 67.432 L 1265.039 113.525 L 1256.982 113.525 Z" id="24" vector-effect="non-scaling-stroke"/><path d="M 1347.656 75.537 L 1308.74 75.537 L 1308.74 0 L 1316.797 0 L 1316.797 67.432 L 1347.656 67.432 L 1347.656 75.537 Z M 1347.656 59.375 L 1324.854 59.375 L 1324.854 0 L 1332.91 0 L 1332.91 51.27 L 1347.656 51.27 L 1347.656 59.375 Z" id="25" vector-effect="non-scaling-stroke"/><path d="M 1345.703 113.525 L 1345.703 0 L 1399.414 0 L 1399.414 113.525 L 1345.703 113.525 Z" id="26" vector-effect="non-scaling-stroke"/><path d="M 1397.461 113.525 L 1397.461 0 L 1451.172 0 L 1451.172 113.525 L 1397.461 113.525 Z" id="27" vector-effect="non-scaling-stroke"/><path d="M 1480.127 113.525 L 1480.127 59.375 L 1449.219 59.375 L 1449.219 51.27 L 1488.184 51.27 L 1488.184 113.525 L 1480.127 113.525 Z M 1464.014 113.525 L 1464.014 75.537 L 1449.219 75.537 L 1449.219 67.432 L 1472.07 67.432 L 1472.07 113.525 L 1464.014 113.525 Z" id="28" vector-effect="non-scaling-stroke"/><path d="M 1500.977 113.525 L 1500.977 0 L 1554.688 0 L 1554.688 113.525 L 1500.977 113.525 Z" id="29" vector-effect="non-scaling-stroke"/><path d="M 1552.734 113.525 L 1552.734 0 L 1606.445 0 L 1606.445 113.525 L 1552.734 113.525 Z" id="30" vector-effect="non-scaling-stroke"/><path d="M 1619.287 51.27 L 1658.203 51.27 L 1658.203 59.375 L 1627.344 59.375 L 1627.344 113.525 L 1619.287 113.525 L 1619.287 51.27 Z M 1635.4 113.525 L 1635.4 67.432 L 1658.203 67.432 L 1658.203 75.537 L 1643.457 75.537 L 1643.457 113.525 L 1635.4 113.525 Z" id="31" vector-effect="non-scaling-stroke"/><path d="M 1687.158 0 L 1695.215 0 L 1695.215 75.537 L 1656.25 75.537 L 1656.25 67.432 L 1687.158 67.432 L 1687.158 0 Z M 1656.25 51.27 L 1671.045 51.27 L 1671.045 0 L 1679.102 0 L 1679.102 59.375 L 1656.25 59.375 L 1656.25 51.27 Z" id="32" vector-effect="non-scaling-stroke"/><path d="M 1761.719 75.537 L 1722.803 75.537 L 1722.803 0 L 1730.859 0 L 1730.859 67.432 L 1761.719 67.432 L 1761.719 75.537 Z M 1761.719 59.375 L 1738.916 59.375 L 1738.916 0 L 1746.973 0 L 1746.973 51.27 L 1761.719 51.27 L 1761.719 59.375 Z" id="33" vector-effect="non-scaling-stroke"/><path d="M 1759.766 113.525 L 1759.766 0 L 1813.477 0 L 1813.477 113.525 L 1759.766 113.525 Z" id="34" vector-effect="non-scaling-stroke"/><path d="M 1811.523 113.525 L 1811.523 0 L 1865.234 0 L 1865.234 113.525 L 1811.523 113.525 Z" id="35" vector-effect="non-scaling-stroke"/><path d="M 1894.189 113.525 L 1894.189 59.375 L 1863.281 59.375 L 1863.281 51.27 L 1902.246 51.27 L 1902.246 113.525 L 1894.189 113.525 Z M 1878.076 113.525 L 1878.076 75.537 L 1863.281 75.537 L 1863.281 67.432 L 1886.133 67.432 L 1886.133 113.525 L 1878.076 113.525 Z" id="36" vector-effect="non-scaling-stroke"/><path d="M 1966.797 113.525 L 1966.797 0 L 2020.508 0 L 2020.508 113.525 L 1966.797 113.525 Z" id="38" vector-effect="non-scaling-stroke"/><path d="M 2018.555 113.525 L 2018.555 0 L 2072.266 0 L 2072.266 113.525 L 2018.555 113.525 Z" id="39" vector-effect="non-scaling-stroke"/><path d="M 2085.107 51.27 L 2124.023 51.27 L 2124.023 59.375 L 2093.164 59.375 L 2093.164 113.525 L 2085.107 113.525 L 2085.107 51.27 Z M 2101.221 113.525 L 2101.221 67.432 L 2124.023 67.432 L 2124.023 75.537 L 2109.277 75.537 L 2109.277 113.525 L 2101.221 113.525 Z" id="40" vector-effect="non-scaling-stroke"/><path d="M 2152.979 0 L 2161.035 0 L 2161.035 75.537 L 2122.07 75.537 L 2122.07 67.432 L 2152.979 67.432 L 2152.979 0 Z M 2122.07 51.27 L 2136.865 51.27 L 2136.865 0 L 2144.922 0 L 2144.922 59.375 L 2122.07 59.375 L 2122.07 51.27 Z" id="41" vector-effect="non-scaling-stroke"/><path d="M 2227.539 75.537 L 2188.623 75.537 L 2188.623 0 L 2196.68 0 L 2196.68 67.432 L 2227.539 67.432 L 2227.539 75.537 Z M 2227.539 59.375 L 2204.736 59.375 L 2204.736 0 L 2212.793 0 L 2212.793 51.27 L 2227.539 51.27 L 2227.539 59.375 Z" id="42" vector-effect="non-scaling-stroke"/><path d="M 2225.586 59.375 L 2225.586 51.27 L 2279.297 51.27 L 2279.297 59.375 L 2225.586 59.375 Z M 2225.586 75.537 L 2225.586 67.432 L 2279.297 67.432 L 2279.297 75.537 L 2225.586 75.537 Z" id="43" vector-effect="non-scaling-stroke"/><path d="M 2308.252 0 L 2316.309 0 L 2316.309 75.537 L 2277.344 75.537 L 2277.344 67.432 L 2308.252 67.432 L 2308.252 0 Z M 2277.344 51.27 L 2292.139 51.27 L 2292.139 0 L 2300.195 0 L 2300.195 59.375 L 2277.344 59.375 L 2277.344 51.27 Z" id="44" vector-effect="non-scaling-stroke"/><path d="M 2329.102 113.525 L 2329.102 0 L 2382.813 0 L 2382.813 113.525 L 2329.102 113.525 Z" id="45" vector-effect="non-scaling-stroke"/><path d="M 2380.859 113.525 L 2380.859 0 L 2434.57 0 L 2434.57 113.525 L 2380.859 113.525 Z" id="46" vector-effect="non-scaling-stroke"/><path d="M 2447.412 51.27 L 2486.328 51.27 L 2486.328 59.375 L 2455.469 59.375 L 2455.469 113.525 L 2447.412 113.525 L 2447.412 51.27 Z M 2463.525 113.525 L 2463.525 67.432 L 2486.328 67.432 L 2486.328 75.537 L 2471.582 75.537 L 2471.582 113.525 L 2463.525 113.525 Z" id="47" vector-effect="non-scaling-stroke"/><path d="M 2484.375 59.375 L 2484.375 51.27 L 2538.086 51.27 L 2538.086 59.375 L 2484.375 59.375 Z M 2484.375 75.537 L 2484.375 67.432 L 2538.086 67.432 L 2538.086 75.537 L 2484.375 75.537 Z" id="48" vector-effect="non-scaling-stroke"/><path d="M 2536.133 59.375 L 2536.133 51.27 L 2589.844 51.27 L 2589.844 59.375 L 2536.133 59.375 Z M 2536.133 75.537 L 2536.133 67.432 L 2589.844 67.432 L 2589.844 75.537 L 2536.133 75.537 Z" id="49" vector-effect="non-scaling-stroke"/><path d="M 2587.891 59.375 L 2587.891 51.27 L 2641.602 51.27 L 2641.602 59.375 L 2587.891 59.375 Z M 2587.891 75.537 L 2587.891 67.432 L 2641.602 67.432 L 2641.602 75.537 L 2587.891 75.537 Z" id="50" vector-effect="non-scaling-stroke"/><path d="M 2639.648 59.375 L 2639.648 51.27 L 2693.359 51.27 L 2693.359 59.375 L 2639.648 59.375 Z M 2639.648 75.537 L 2639.648 67.432 L 2693.359 67.432 L 2693.359 75.537 L 2639.648 75.537 Z" id="51" vector-effect="non-scaling-stroke"/><path d="M 2722.314 0 L 2730.371 0 L 2730.371 75.537 L 2691.406 75.537 L 2691.406 67.432 L 2722.314 67.432 L 2722.314 0 Z M 2691.406 51.27 L 2706.201 51.27 L 2706.201 0 L 2714.258 0 L 2714.258 59.375 L 2691.406 59.375 L 2691.406 51.27 Z" id="52" vector-effect="non-scaling-stroke"/><path d="M 2950.195 113.525 L 2950.195 0 L 3003.906 0 L 3003.906 113.525 L 2950.195 113.525 Z" id="57" vector-effect="non-scaling-stroke"/><path d="M 3001.953 113.525 L 3001.953 0 L 3055.664 0 L 3055.664 113.525 L 3001.953 113.525 Z" id="58" vector-effect="non-scaling-stroke"/><path d="M 3068.506 51.27 L 3107.422 51.27 L 3107.422 59.375 L 3076.563 59.375 L 3076.563 113.525 L 3068.506 113.525 L 3068.506 51.27 Z M 3084.619 113.525 L 3084.619 67.432 L 3107.422 67.432 L 3107.422 75.537 L 3092.676 75.537 L 3092.676 113.525 L 3084.619 113.525 Z" id="59" vector-effect="non-scaling-stroke"/><path d="M 3105.469 59.375 L 3105.469 51.27 L 3159.18 51.27 L 3159.18 59.375 L 3105.469 59.375 Z M 3105.469 75.537 L 3105.469 67.432 L 3159.18 67.432 L 3159.18 75.537 L 3105.469 75.537 Z" id="60" vector-effect="non-scaling-stroke"/><path d="M 3157.227 59.375 L 3157.227 51.27 L 3210.938 51.27 L 3210.938 59.375 L 3157.227 59.375 Z M 3157.227 75.537 L 3157.227 67.432 L 3210.938 67.432 L 3210.938 75.537 L 3157.227 75.537 Z" id="61" vector-effect="non-scaling-stroke"/><path d="M 3208.984 113.525 L 3208.984 0 L 3262.695 0 L 3262.695 113.525 L 3208.984 113.525 Z" id="62" vector-effect="non-scaling-stroke"/><path d="M 3260.742 113.525 L 3260.742 0 L 3314.453 0 L 3314.453 113.525 L 3260.742 113.525 Z" id="63" vector-effect="non-scaling-stroke"/><path d="M 3343.408 113.525 L 3343.408 59.375 L 3312.5 59.375 L 3312.5 51.27 L 3351.465 51.27 L 3351.465 113.525 L 3343.408 113.525 Z M 3327.295 113.525 L 3327.295 75.537 L 3312.5 75.537 L 3312.5 67.432 L 3335.352 67.432 L 3335.352 113.525 L 3327.295 113.525 Z" id="64" vector-effect="non-scaling-stroke"/><path d="M 3364.258 113.525 L 3364.258 0 L 3417.969 0 L 3417.969 113.525 L 3364.258 113.525 Z" id="65" vector-effect="non-scaling-stroke"/><path d="M 3416.016 113.525 L 3416.016 0 L 3469.727 0 L 3469.727 113.525 L 3416.016 113.525 Z" id="66" vector-effect="non-scaling-stroke"/><path d="M 3482.568 51.27 L 3521.484 51.27 L 3521.484 59.375 L 3490.625 59.375 L 3490.625 113.525 L 3482.568 113.525 L 3482.568 51.27 Z M 3498.682 113.525 L 3498.682 67.432 L 3521.484 67.432 L 3521.484 75.537 L 3506.738 75.537 L 3506.738 113.525 L 3498.682 113.525 Z" id="67" vector-effect="non-scaling-stroke"/><path d="M 3519.531 59.375 L 3519.531 51.27 L 3573.242 51.27 L 3573.242 59.375 L 3519.531 59.375 Z M 3519.531 75.537 L 3519.531 67.432 L 3573.242 67.432 L 3573.242 75.537 L 3519.531 75.537 Z" id="68" vector-effect="non-scaling-stroke"/><path d="M 3571.289 113.525 L 3571.289 0 L 3625 0 L 3625 113.525 L 3571.289 113.525 Z" id="69" vector-effect="non-scaling-stroke"/><path d="M 3623.047 113.525 L 3623.047 0 L 3676.758 0 L 3676.758 113.525 L 3623.047 113.525 Z" id="70" vector-effect="non-scaling-stroke"/><path d="M 3674.805 113.525 L 3674.805 0 L 3728.516 0 L 3728.516 113.525 L 3674.805 113.525 Z" id="71" vector-effect="non-scaling-stroke"/><path d="M 3726.563 113.525 L 3726.563 0 L 3780.273 0 L 3780.273 113.525 L 3726.563 113.525 Z" id="72" vector-effect="non-scaling-stroke"/><path d="M 3809.229 113.525 L 3809.229 59.375 L 3778.32 59.375 L 3778.32 51.27 L 3817.285 51.27 L 3817.285 113.525 L 3809.229 113.525 Z M 3793.115 113.525 L 3793.115 75.537 L 3778.32 75.537 L 3778.32 67.432 L 3801.172 67.432 L 3801.172 113.525 L 3793.115 113.525 Z" id="73" vector-effect="non-scaling-stroke"/><path d="M 3883.789 75.537 L 3844.873 75.537 L 3844.873 0 L 3852.93 0 L 3852.93 67.432 L 3883.789 67.432 L 3883.789 75.537 Z M 3883.789 59.375 L 3860.986 59.375 L 3860.986 0 L 3869.043 0 L 3869.043 51.27 L 3883.789 51.27 L 3883.789 59.375 Z" id="74" vector-effect="non-scaling-stroke"/><path d="M 3881.836 59.375 L 3881.836 51.27 L 3935.547 51.27 L 3935.547 59.375 L 3881.836 59.375 Z M 3881.836 75.537 L 3881.836 67.432 L 3935.547 67.432 L 3935.547 75.537 L 3881.836 75.537 Z" id="75" vector-effect="non-scaling-stroke"/><path d="M 3933.594 59.375 L 3933.594 51.27 L 3987.305 51.27 L 3987.305 59.375 L 3933.594 59.375 Z M 3933.594 75.537 L 3933.594 67.432 L 3987.305 67.432 L 3987.305 75.537 L 3933.594 75.537 Z" id="76" vector-effect="non-scaling-stroke"/><path d="M 3985.352 113.525 L 3985.352 0 L 4039.063 0 L 4039.063 113.525 L 3985.352 113.525 Z" id="77" vector-effect="non-scaling-stroke"/><path d="M 4037.109 113.525 L 4037.109 0 L 4090.82 0 L 4090.82 113.525 L 4037.109 113.525 Z" id="78" vector-effect="non-scaling-stroke"/><path d="M 4103.662 51.27 L 4142.578 51.27 L 4142.578 59.375 L 4111.719 59.375 L 4111.719 113.525 L 4103.662 113.525 L 4103.662 51.27 Z M 4119.775 113.525 L 4119.775 67.432 L 4142.578 67.432 L 4142.578 75.537 L 4127.832 75.537 L 4127.832 113.525 L 4119.775 113.525 Z" id="79" vector-effect="non-scaling-stroke"/><path d="M 4140.625 59.375 L 4140.625 51.27 L 4194.336 51.27 L 4194.336 59.375 L 4140.625 59.375 Z M 4140.625 75.537 L 4140.625 67.432 L 4194.336 67.432 L 4194.336 75.537 L 4140.625 75.537 Z" id="80" vector-effect="non-scaling-stroke"/><path d="M 4192.383 59.375 L 4192.383 51.27 L 4246.094 51.27 L 4246.094 59.375 L 4192.383 59.375 Z M 4192.383 75.537 L 4192.383 67.432 L 4246.094 67.432 L 4246.094 75.537 L 4192.383 75.537 Z" id="81" vector-effect="non-scaling-stroke"/><path d="M 4275.049 0 L 4283.105 0 L 4283.105 75.537 L 4244.141 75.537 L 4244.141 67.432 L 4275.049 67.432 L 4275.049 0 Z M 4244.141 51.27 L 4258.936 51.27 L 4258.936 0 L 4266.992 0 L 4266.992 59.375 L 4244.141 59.375 L 4244.141 51.27 Z" id="82" vector-effect="non-scaling-stroke"/><path d="M 4295.898 113.525 L 4295.898 0 L 4349.609 0 L 4349.609 113.525 L 4295.898 113.525 Z" id="83" vector-effect="non-scaling-stroke"/><path d="M 4347.656 113.525 L 4347.656 0 L 4401.367 0 L 4401.367 113.525 L 4347.656 113.525 Z" id="84" vector-effect="non-scaling-stroke"/><path d="M 4414.209 51.27 L 4453.125 51.27 L 4453.125 59.375 L 4422.266 59.375 L 4422.266 113.525 L 4414.209 113.525 L 4414.209 51.27 Z M 4430.322 113.525 L 4430.322 67.432 L 4453.125 67.432 L 4453.125 75.537 L 4438.379 75.537 L 4438.379 113.525 L 4430.322 113.525 Z" id="85" vector-effect="non-scaling-stroke"/><path d="M 4451.172 59.375 L 4451.172 51.27 L 4504.883 51.27 L 4504.883 59.375 L 4451.172 59.375 Z M 4451.172 75.537 L 4451.172 67.432 L 4504.883 67.432 L 4504.883 75.537 L 4451.172 75.537 Z" id="86" vector-effect="non-scaling-stroke"/><path d="M 4502.93 59.375 L 4502.93 51.27 L 4556.641 51.27 L 4556.641 59.375 L 4502.93 59.375 Z M 4502.93 75.537 L 4502.93 67.432 L 4556.641 67.432 L 4556.641 75.537 L 4502.93 75.537 Z" id="87" vector-effect="non-scaling-stroke"/><path d="M 4554.688 59.375 L 4554.688 51.27 L 4608.398 51.27 L 4608.398 59.375 L 4554.688 59.375 Z M 4554.688 75.537 L 4554.688 67.432 L 4608.398 67.432 L 4608.398 75.537 L 4554.688 75.537 Z" id="88" vector-effect="non-scaling-stroke"/><path d="M 4606.445 59.375 L 4606.445 51.27 L 4660.156 51.27 L 4660.156 59.375 L 4606.445 59.375 Z M 4606.445 75.537 L 4606.445 67.432 L 4660.156 67.432 L 4660.156 75.537 L 4606.445 75.537 Z" id="89" vector-effect="non-scaling-stroke"/><path d="M 4689.111 0 L 4697.168 0 L 4697.168 75.537 L 4658.203 75.537 L 4658.203 67.432 L 4689.111 67.432 L 4689.111 0 Z M 4658.203 51.27 L 4672.998 51.27 L 4672.998 0 L 4681.055 0 L 4681.055 59.375 L 4658.203 59.375 L 4658.203 51.27 Z" id="90" vector-effect="non-scaling-stroke"/></g>

<g transform="translate(0, 227.05)" id="svgGroup3" stroke-linecap="round" fill-rule="evenodd" font-size="9pt" stroke="#5727B0" stroke-width="0.25mm" fill="#5727B0" style="stroke:#5727B0;stroke-width:0.25mm;fill:#5727B0"><path d="M 0 113.525 L 0 0 L 53.711 0 L 53.711 113.525 L 0 113.525 Z" id="0" vector-effect="non-scaling-stroke"/><path d="M 51.758 113.525 L 51.758 0 L 105.469 0 L 105.469 113.525 L 51.758 113.525 Z" id="1" vector-effect="non-scaling-stroke"/><path d="M 103.516 113.525 L 103.516 0 L 157.227 0 L 157.227 113.525 L 103.516 113.525 Z" id="2" vector-effect="non-scaling-stroke"/><path d="M 155.273 113.525 L 155.273 0 L 208.984 0 L 208.984 113.525 L 155.273 113.525 Z" id="3" vector-effect="non-scaling-stroke"/><path d="M 207.031 113.525 L 207.031 0 L 260.742 0 L 260.742 113.525 L 207.031 113.525 Z" id="4" vector-effect="non-scaling-stroke"/><path d="M 258.789 113.525 L 258.789 0 L 312.5 0 L 312.5 113.525 L 258.789 113.525 Z" id="5" vector-effect="non-scaling-stroke"/><path d="M 325.342 51.27 L 364.258 51.27 L 364.258 59.375 L 333.398 59.375 L 333.398 113.525 L 325.342 113.525 L 325.342 51.27 Z M 341.455 113.525 L 341.455 67.432 L 364.258 67.432 L 364.258 75.537 L 349.512 75.537 L 349.512 113.525 L 341.455 113.525 Z" id="6" vector-effect="non-scaling-stroke"/><path d="M 393.213 0 L 401.27 0 L 401.27 75.537 L 362.305 75.537 L 362.305 67.432 L 393.213 67.432 L 393.213 0 Z M 362.305 51.27 L 377.1 51.27 L 377.1 0 L 385.156 0 L 385.156 59.375 L 362.305 59.375 L 362.305 51.27 Z" id="7" vector-effect="non-scaling-stroke"/><path d="M 414.063 113.525 L 414.063 0 L 467.773 0 L 467.773 113.525 L 414.063 113.525 Z" id="8" vector-effect="non-scaling-stroke"/><path d="M 465.82 113.525 L 465.82 0 L 519.531 0 L 519.531 113.525 L 465.82 113.525 Z" id="9" vector-effect="non-scaling-stroke"/><path d="M 517.578 113.525 L 517.578 0 L 571.289 0 L 571.289 113.525 L 517.578 113.525 Z" id="10" vector-effect="non-scaling-stroke"/><path d="M 569.336 113.525 L 569.336 0 L 623.047 0 L 623.047 113.525 L 569.336 113.525 Z" id="11" vector-effect="non-scaling-stroke"/><path d="M 621.094 113.525 L 621.094 0 L 674.805 0 L 674.805 113.525 L 621.094 113.525 Z" id="12" vector-effect="non-scaling-stroke"/><path d="M 672.852 113.525 L 672.852 0 L 726.563 0 L 726.563 113.525 L 672.852 113.525 Z" id="13" vector-effect="non-scaling-stroke"/><path d="M 739.404 51.27 L 778.32 51.27 L 778.32 59.375 L 747.461 59.375 L 747.461 113.525 L 739.404 113.525 L 739.404 51.27 Z M 755.518 113.525 L 755.518 67.432 L 778.32 67.432 L 778.32 75.537 L 763.574 75.537 L 763.574 113.525 L 755.518 113.525 Z" id="14" vector-effect="non-scaling-stroke"/><path d="M 807.275 0 L 815.332 0 L 815.332 75.537 L 776.367 75.537 L 776.367 67.432 L 807.275 67.432 L 807.275 0 Z M 776.367 51.27 L 791.162 51.27 L 791.162 0 L 799.219 0 L 799.219 59.375 L 776.367 59.375 L 776.367 51.27 Z" id="15" vector-effect="non-scaling-stroke"/><path d="M 828.125 113.525 L 828.125 0 L 881.836 0 L 881.836 113.525 L 828.125 113.525 Z" id="16" vector-effect="non-scaling-stroke"/><path d="M 879.883 113.525 L 879.883 0 L 933.594 0 L 933.594 113.525 L 879.883 113.525 Z" id="17" vector-effect="non-scaling-stroke"/><path d="M 962.549 0 L 970.605 0 L 970.605 113.525 L 962.549 113.525 L 962.549 0 Z M 946.436 0 L 954.492 0 L 954.492 113.525 L 946.436 113.525 L 946.436 0 Z" id="18" vector-effect="non-scaling-stroke"/><path d="M 983.398 113.525 L 983.398 0 L 1037.109 0 L 1037.109 113.525 L 983.398 113.525 Z" id="19" vector-effect="non-scaling-stroke"/><path d="M 1035.156 113.525 L 1035.156 0 L 1088.867 0 L 1088.867 113.525 L 1035.156 113.525 Z" id="20" vector-effect="non-scaling-stroke"/><path d="M 1101.709 51.27 L 1140.625 51.27 L 1140.625 59.375 L 1109.766 59.375 L 1109.766 113.525 L 1101.709 113.525 L 1101.709 51.27 Z M 1117.822 113.525 L 1117.822 67.432 L 1140.625 67.432 L 1140.625 75.537 L 1125.879 75.537 L 1125.879 113.525 L 1117.822 113.525 Z" id="21" vector-effect="non-scaling-stroke"/><path d="M 1138.672 113.525 L 1138.672 0 L 1192.383 0 L 1192.383 113.525 L 1138.672 113.525 Z" id="22" vector-effect="non-scaling-stroke"/><path d="M 1190.43 113.525 L 1190.43 0 L 1244.141 0 L 1244.141 113.525 L 1190.43 113.525 Z" id="23" vector-effect="non-scaling-stroke"/><path d="M 1273.096 0 L 1281.152 0 L 1281.152 113.525 L 1273.096 113.525 L 1273.096 0 Z M 1256.982 0 L 1265.039 0 L 1265.039 113.525 L 1256.982 113.525 L 1256.982 0 Z" id="24" vector-effect="non-scaling-stroke"/><path d="M 1399.414 75.537 L 1360.498 75.537 L 1360.498 0 L 1368.555 0 L 1368.555 67.432 L 1399.414 67.432 L 1399.414 75.537 Z M 1399.414 59.375 L 1376.611 59.375 L 1376.611 0 L 1384.668 0 L 1384.668 51.27 L 1399.414 51.27 L 1399.414 59.375 Z" id="26" vector-effect="non-scaling-stroke"/><path d="M 1397.461 113.525 L 1397.461 0 L 1451.172 0 L 1451.172 113.525 L 1397.461 113.525 Z" id="27" vector-effect="non-scaling-stroke"/><path d="M 1449.219 113.525 L 1449.219 0 L 1502.93 0 L 1502.93 113.525 L 1449.219 113.525 Z" id="28" vector-effect="non-scaling-stroke"/><path d="M 1500.977 113.525 L 1500.977 0 L 1554.688 0 L 1554.688 113.525 L 1500.977 113.525 Z" id="29" vector-effect="non-scaling-stroke"/><path d="M 1567.529 51.27 L 1606.445 51.27 L 1606.445 59.375 L 1575.586 59.375 L 1575.586 113.525 L 1567.529 113.525 L 1567.529 51.27 Z M 1583.643 113.525 L 1583.643 67.432 L 1606.445 67.432 L 1606.445 75.537 L 1591.699 75.537 L 1591.699 113.525 L 1583.643 113.525 Z" id="30" vector-effect="non-scaling-stroke"/><path d="M 1635.4 0 L 1643.457 0 L 1643.457 75.537 L 1604.492 75.537 L 1604.492 67.432 L 1635.4 67.432 L 1635.4 0 Z M 1604.492 51.27 L 1619.287 51.27 L 1619.287 0 L 1627.344 0 L 1627.344 59.375 L 1604.492 59.375 L 1604.492 51.27 Z" id="31" vector-effect="non-scaling-stroke"/><path d="M 1813.477 75.537 L 1774.561 75.537 L 1774.561 0 L 1782.617 0 L 1782.617 67.432 L 1813.477 67.432 L 1813.477 75.537 Z M 1813.477 59.375 L 1790.674 59.375 L 1790.674 0 L 1798.73 0 L 1798.73 51.27 L 1813.477 51.27 L 1813.477 59.375 Z" id="34" vector-effect="non-scaling-stroke"/><path d="M 1811.523 113.525 L 1811.523 0 L 1865.234 0 L 1865.234 113.525 L 1811.523 113.525 Z" id="35" vector-effect="non-scaling-stroke"/><path d="M 1863.281 113.525 L 1863.281 0 L 1916.992 0 L 1916.992 113.525 L 1863.281 113.525 Z" id="36" vector-effect="non-scaling-stroke"/><path d="M 1915.039 113.525 L 1915.039 0 L 1968.75 0 L 1968.75 113.525 L 1915.039 113.525 Z" id="37" vector-effect="non-scaling-stroke"/><path d="M 1966.797 113.525 L 1966.797 0 L 2020.508 0 L 2020.508 113.525 L 1966.797 113.525 Z" id="38" vector-effect="non-scaling-stroke"/><path d="M 2033.35 51.27 L 2072.266 51.27 L 2072.266 59.375 L 2041.406 59.375 L 2041.406 113.525 L 2033.35 113.525 L 2033.35 51.27 Z M 2049.463 113.525 L 2049.463 67.432 L 2072.266 67.432 L 2072.266 75.537 L 2057.52 75.537 L 2057.52 113.525 L 2049.463 113.525 Z" id="39" vector-effect="non-scaling-stroke"/><path d="M 2101.221 0 L 2109.277 0 L 2109.277 75.537 L 2070.313 75.537 L 2070.313 67.432 L 2101.221 67.432 L 2101.221 0 Z M 2070.313 51.27 L 2085.107 51.27 L 2085.107 0 L 2093.164 0 L 2093.164 59.375 L 2070.313 59.375 L 2070.313 51.27 Z" id="40" vector-effect="non-scaling-stroke"/><path d="M 2329.102 113.525 L 2329.102 0 L 2382.813 0 L 2382.813 113.525 L 2329.102 113.525 Z" id="45" vector-effect="non-scaling-stroke"/><path d="M 2380.859 113.525 L 2380.859 0 L 2434.57 0 L 2434.57 113.525 L 2380.859 113.525 Z" id="46" vector-effect="non-scaling-stroke"/><path d="M 2432.617 113.525 L 2432.617 0 L 2486.328 0 L 2486.328 113.525 L 2432.617 113.525 Z" id="47" vector-effect="non-scaling-stroke"/><path d="M 2484.375 113.525 L 2484.375 0 L 2538.086 0 L 2538.086 113.525 L 2484.375 113.525 Z" id="48" vector-effect="non-scaling-stroke"/><path d="M 2536.133 113.525 L 2536.133 0 L 2589.844 0 L 2589.844 113.525 L 2536.133 113.525 Z" id="49" vector-effect="non-scaling-stroke"/><path d="M 2587.891 113.525 L 2587.891 0 L 2641.602 0 L 2641.602 113.525 L 2587.891 113.525 Z" id="50" vector-effect="non-scaling-stroke"/><path d="M 2639.648 113.525 L 2639.648 0 L 2693.359 0 L 2693.359 113.525 L 2639.648 113.525 Z" id="51" vector-effect="non-scaling-stroke"/><path d="M 2722.314 113.525 L 2722.314 59.375 L 2691.406 59.375 L 2691.406 51.27 L 2730.371 51.27 L 2730.371 113.525 L 2722.314 113.525 Z M 2706.201 113.525 L 2706.201 75.537 L 2691.406 75.537 L 2691.406 67.432 L 2714.258 67.432 L 2714.258 113.525 L 2706.201 113.525 Z" id="52" vector-effect="non-scaling-stroke"/><path d="M 2950.195 113.525 L 2950.195 0 L 3003.906 0 L 3003.906 113.525 L 2950.195 113.525 Z" id="57" vector-effect="non-scaling-stroke"/><path d="M 3001.953 113.525 L 3001.953 0 L 3055.664 0 L 3055.664 113.525 L 3001.953 113.525 Z" id="58" vector-effect="non-scaling-stroke"/><path d="M 3084.619 0 L 3092.676 0 L 3092.676 113.525 L 3084.619 113.525 L 3084.619 0 Z M 3068.506 0 L 3076.563 0 L 3076.563 113.525 L 3068.506 113.525 L 3068.506 0 Z" id="59" vector-effect="non-scaling-stroke"/><path d="M 3208.984 113.525 L 3208.984 0 L 3262.695 0 L 3262.695 113.525 L 3208.984 113.525 Z" id="62" vector-effect="non-scaling-stroke"/><path d="M 3260.742 113.525 L 3260.742 0 L 3314.453 0 L 3314.453 113.525 L 3260.742 113.525 Z" id="63" vector-effect="non-scaling-stroke"/><path d="M 3343.408 0 L 3351.465 0 L 3351.465 113.525 L 3343.408 113.525 L 3343.408 0 Z M 3327.295 0 L 3335.352 0 L 3335.352 113.525 L 3327.295 113.525 L 3327.295 0 Z" id="64" vector-effect="non-scaling-stroke"/><path d="M 3364.258 113.525 L 3364.258 0 L 3417.969 0 L 3417.969 113.525 L 3364.258 113.525 Z" id="65" vector-effect="non-scaling-stroke"/><path d="M 3416.016 113.525 L 3416.016 0 L 3469.727 0 L 3469.727 113.525 L 3416.016 113.525 Z" id="66" vector-effect="non-scaling-stroke"/><path d="M 3498.682 0 L 3506.738 0 L 3506.738 113.525 L 3498.682 113.525 L 3498.682 0 Z M 3482.568 0 L 3490.625 0 L 3490.625 113.525 L 3482.568 113.525 L 3482.568 0 Z" id="67" vector-effect="non-scaling-stroke"/><path d="M 3519.531 113.525 L 3519.531 0 L 3573.242 0 L 3573.242 113.525 L 3519.531 113.525 Z" id="68" vector-effect="non-scaling-stroke"/><path d="M 3571.289 113.525 L 3571.289 0 L 3625 0 L 3625 113.525 L 3571.289 113.525 Z" id="69" vector-effect="non-scaling-stroke"/><path d="M 3637.842 51.27 L 3676.758 51.27 L 3676.758 59.375 L 3645.898 59.375 L 3645.898 113.525 L 3637.842 113.525 L 3637.842 51.27 Z M 3653.955 113.525 L 3653.955 67.432 L 3676.758 67.432 L 3676.758 75.537 L 3662.012 75.537 L 3662.012 113.525 L 3653.955 113.525 Z" id="70" vector-effect="non-scaling-stroke"/><path d="M 3674.805 113.525 L 3674.805 0 L 3728.516 0 L 3728.516 113.525 L 3674.805 113.525 Z" id="71" vector-effect="non-scaling-stroke"/><path d="M 3726.563 113.525 L 3726.563 0 L 3780.273 0 L 3780.273 113.525 L 3726.563 113.525 Z" id="72" vector-effect="non-scaling-stroke"/><path d="M 3809.229 0 L 3817.285 0 L 3817.285 113.525 L 3809.229 113.525 L 3809.229 0 Z M 3793.115 0 L 3801.172 0 L 3801.172 113.525 L 3793.115 113.525 L 3793.115 0 Z" id="73" vector-effect="non-scaling-stroke"/><path d="M 3985.352 113.525 L 3985.352 0 L 4039.063 0 L 4039.063 113.525 L 3985.352 113.525 Z" id="77" vector-effect="non-scaling-stroke"/><path d="M 4037.109 113.525 L 4037.109 0 L 4090.82 0 L 4090.82 113.525 L 4037.109 113.525 Z" id="78" vector-effect="non-scaling-stroke"/><path d="M 4119.775 0 L 4127.832 0 L 4127.832 113.525 L 4119.775 113.525 L 4119.775 0 Z M 4103.662 0 L 4111.719 0 L 4111.719 113.525 L 4103.662 113.525 L 4103.662 0 Z" id="79" vector-effect="non-scaling-stroke"/><path d="M 4295.898 113.525 L 4295.898 0 L 4349.609 0 L 4349.609 113.525 L 4295.898 113.525 Z" id="83" vector-effect="non-scaling-stroke"/><path d="M 4347.656 113.525 L 4347.656 0 L 4401.367 0 L 4401.367 113.525 L 4347.656 113.525 Z" id="84" vector-effect="non-scaling-stroke"/><path d="M 4399.414 113.525 L 4399.414 0 L 4453.125 0 L 4453.125 113.525 L 4399.414 113.525 Z" id="85" vector-effect="non-scaling-stroke"/><path d="M 4451.172 113.525 L 4451.172 0 L 4504.883 0 L 4504.883 113.525 L 4451.172 113.525 Z" id="86" vector-effect="non-scaling-stroke"/><path d="M 4502.93 113.525 L 4502.93 0 L 4556.641 0 L 4556.641 113.525 L 4502.93 113.525 Z" id="87" vector-effect="non-scaling-stroke"/><path d="M 4554.688 113.525 L 4554.688 0 L 4608.398 0 L 4608.398 113.525 L 4554.688 113.525 Z" id="88" vector-effect="non-scaling-stroke"/><path d="M 4606.445 113.525 L 4606.445 0 L 4660.156 0 L 4660.156 113.525 L 4606.445 113.525 Z" id="89" vector-effect="non-scaling-stroke"/><path d="M 4689.111 113.525 L 4689.111 59.375 L 4658.203 59.375 L 4658.203 51.27 L 4697.168 51.27 L 4697.168 113.525 L 4689.111 113.525 Z M 4672.998 113.525 L 4672.998 75.537 L 4658.203 75.537 L 4658.203 67.432 L 4681.055 67.432 L 4681.055 113.525 L 4672.998 113.525 Z" id="90" vector-effect="non-scaling-stroke"/></g>

<g transform="translate(0, 340.575)" id="svgGroup4" stroke-linecap="round" fill-rule="evenodd" font-size="9pt" stroke="#276BB0" stroke-width="0.25mm" fill="#276BB0" style="stroke:#276BB0;stroke-width:0.25mm;fill:#276BB0"><path d="M 0 113.525 L 0 0 L 53.711 0 L 53.711 113.525 L 0 113.525 Z" id="0" vector-effect="non-scaling-stroke"/><path d="M 51.758 113.525 L 51.758 0 L 105.469 0 L 105.469 113.525 L 51.758 113.525 Z" id="1" vector-effect="non-scaling-stroke"/><path d="M 118.311 51.27 L 157.227 51.27 L 157.227 59.375 L 126.367 59.375 L 126.367 113.525 L 118.311 113.525 L 118.311 51.27 Z M 134.424 113.525 L 134.424 67.432 L 157.227 67.432 L 157.227 75.537 L 142.48 75.537 L 142.48 113.525 L 134.424 113.525 Z" id="2" vector-effect="non-scaling-stroke"/><path d="M 155.273 59.375 L 155.273 51.27 L 208.984 51.27 L 208.984 59.375 L 155.273 59.375 Z M 155.273 75.537 L 155.273 67.432 L 208.984 67.432 L 208.984 75.537 L 155.273 75.537 Z" id="3" vector-effect="non-scaling-stroke"/><path d="M 207.031 59.375 L 207.031 51.27 L 260.742 51.27 L 260.742 59.375 L 207.031 59.375 Z M 207.031 75.537 L 207.031 67.432 L 260.742 67.432 L 260.742 75.537 L 207.031 75.537 Z" id="4" vector-effect="non-scaling-stroke"/><path d="M 258.789 59.375 L 258.789 51.27 L 312.5 51.27 L 312.5 59.375 L 258.789 59.375 Z M 258.789 75.537 L 258.789 67.432 L 312.5 67.432 L 312.5 75.537 L 258.789 75.537 Z" id="5" vector-effect="non-scaling-stroke"/><path d="M 341.455 0 L 349.512 0 L 349.512 75.537 L 310.547 75.537 L 310.547 67.432 L 341.455 67.432 L 341.455 0 Z M 310.547 51.27 L 325.342 51.27 L 325.342 0 L 333.398 0 L 333.398 59.375 L 310.547 59.375 L 310.547 51.27 Z" id="6" vector-effect="non-scaling-stroke"/><path d="M 414.063 113.525 L 414.063 0 L 467.773 0 L 467.773 113.525 L 414.063 113.525 Z" id="8" vector-effect="non-scaling-stroke"/><path d="M 465.82 113.525 L 465.82 0 L 519.531 0 L 519.531 113.525 L 465.82 113.525 Z" id="9" vector-effect="non-scaling-stroke"/><path d="M 532.373 51.27 L 571.289 51.27 L 571.289 59.375 L 540.43 59.375 L 540.43 113.525 L 532.373 113.525 L 532.373 51.27 Z M 548.486 113.525 L 548.486 67.432 L 571.289 67.432 L 571.289 75.537 L 556.543 75.537 L 556.543 113.525 L 548.486 113.525 Z" id="10" vector-effect="non-scaling-stroke"/><path d="M 569.336 59.375 L 569.336 51.27 L 623.047 51.27 L 623.047 59.375 L 569.336 59.375 Z M 569.336 75.537 L 569.336 67.432 L 623.047 67.432 L 623.047 75.537 L 569.336 75.537 Z" id="11" vector-effect="non-scaling-stroke"/><path d="M 621.094 59.375 L 621.094 51.27 L 674.805 51.27 L 674.805 59.375 L 621.094 59.375 Z M 621.094 75.537 L 621.094 67.432 L 674.805 67.432 L 674.805 75.537 L 621.094 75.537 Z" id="12" vector-effect="non-scaling-stroke"/><path d="M 672.852 113.525 L 672.852 0 L 726.563 0 L 726.563 113.525 L 672.852 113.525 Z" id="13" vector-effect="non-scaling-stroke"/><path d="M 724.609 113.525 L 724.609 0 L 778.32 0 L 778.32 113.525 L 724.609 113.525 Z" id="14" vector-effect="non-scaling-stroke"/><path d="M 807.275 113.525 L 807.275 59.375 L 776.367 59.375 L 776.367 51.27 L 815.332 51.27 L 815.332 113.525 L 807.275 113.525 Z M 791.162 113.525 L 791.162 75.537 L 776.367 75.537 L 776.367 67.432 L 799.219 67.432 L 799.219 113.525 L 791.162 113.525 Z" id="15" vector-effect="non-scaling-stroke"/><path d="M 828.125 113.525 L 828.125 0 L 881.836 0 L 881.836 113.525 L 828.125 113.525 Z" id="16" vector-effect="non-scaling-stroke"/><path d="M 879.883 113.525 L 879.883 0 L 933.594 0 L 933.594 113.525 L 879.883 113.525 Z" id="17" vector-effect="non-scaling-stroke"/><path d="M 931.641 113.525 L 931.641 0 L 985.352 0 L 985.352 113.525 L 931.641 113.525 Z" id="18" vector-effect="non-scaling-stroke"/><path d="M 983.398 113.525 L 983.398 0 L 1037.109 0 L 1037.109 113.525 L 983.398 113.525 Z" id="19" vector-effect="non-scaling-stroke"/><path d="M 1049.951 51.27 L 1088.867 51.27 L 1088.867 59.375 L 1058.008 59.375 L 1058.008 113.525 L 1049.951 113.525 L 1049.951 51.27 Z M 1066.064 113.525 L 1066.064 67.432 L 1088.867 67.432 L 1088.867 75.537 L 1074.121 75.537 L 1074.121 113.525 L 1066.064 113.525 Z" id="20" vector-effect="non-scaling-stroke"/><path d="M 1117.822 0 L 1125.879 0 L 1125.879 75.537 L 1086.914 75.537 L 1086.914 67.432 L 1117.822 67.432 L 1117.822 0 Z M 1086.914 51.27 L 1101.709 51.27 L 1101.709 0 L 1109.766 0 L 1109.766 59.375 L 1086.914 59.375 L 1086.914 51.27 Z" id="21" vector-effect="non-scaling-stroke"/><path d="M 1138.672 113.525 L 1138.672 0 L 1192.383 0 L 1192.383 113.525 L 1138.672 113.525 Z" id="22" vector-effect="non-scaling-stroke"/><path d="M 1190.43 113.525 L 1190.43 0 L 1244.141 0 L 1244.141 113.525 L 1190.43 113.525 Z" id="23" vector-effect="non-scaling-stroke"/><path d="M 1273.096 0 L 1281.152 0 L 1281.152 113.525 L 1273.096 113.525 L 1273.096 0 Z M 1256.982 0 L 1265.039 0 L 1265.039 113.525 L 1256.982 113.525 L 1256.982 0 Z" id="24" vector-effect="non-scaling-stroke"/><path d="M 1345.703 113.525 L 1345.703 0 L 1399.414 0 L 1399.414 113.525 L 1345.703 113.525 Z" id="26" vector-effect="non-scaling-stroke"/><path d="M 1397.461 113.525 L 1397.461 0 L 1451.172 0 L 1451.172 113.525 L 1397.461 113.525 Z" id="27" vector-effect="non-scaling-stroke"/><path d="M 1464.014 51.27 L 1502.93 51.27 L 1502.93 59.375 L 1472.07 59.375 L 1472.07 113.525 L 1464.014 113.525 L 1464.014 51.27 Z M 1480.127 113.525 L 1480.127 67.432 L 1502.93 67.432 L 1502.93 75.537 L 1488.184 75.537 L 1488.184 113.525 L 1480.127 113.525 Z" id="28" vector-effect="non-scaling-stroke"/><path d="M 1500.977 113.525 L 1500.977 0 L 1554.688 0 L 1554.688 113.525 L 1500.977 113.525 Z" id="29" vector-effect="non-scaling-stroke"/><path d="M 1552.734 113.525 L 1552.734 0 L 1606.445 0 L 1606.445 113.525 L 1552.734 113.525 Z" id="30" vector-effect="non-scaling-stroke"/><path d="M 1635.4 113.525 L 1635.4 59.375 L 1604.492 59.375 L 1604.492 51.27 L 1643.457 51.27 L 1643.457 113.525 L 1635.4 113.525 Z M 1619.287 113.525 L 1619.287 75.537 L 1604.492 75.537 L 1604.492 67.432 L 1627.344 67.432 L 1627.344 113.525 L 1619.287 113.525 Z" id="31" vector-effect="non-scaling-stroke"/><path d="M 1865.234 75.537 L 1826.318 75.537 L 1826.318 0 L 1834.375 0 L 1834.375 67.432 L 1865.234 67.432 L 1865.234 75.537 Z M 1865.234 59.375 L 1842.432 59.375 L 1842.432 0 L 1850.488 0 L 1850.488 51.27 L 1865.234 51.27 L 1865.234 59.375 Z" id="35" vector-effect="non-scaling-stroke"/><path d="M 1863.281 113.525 L 1863.281 0 L 1916.992 0 L 1916.992 113.525 L 1863.281 113.525 Z" id="36" vector-effect="non-scaling-stroke"/><path d="M 1915.039 113.525 L 1915.039 0 L 1968.75 0 L 1968.75 113.525 L 1915.039 113.525 Z" id="37" vector-effect="non-scaling-stroke"/><path d="M 1981.592 51.27 L 2020.508 51.27 L 2020.508 59.375 L 1989.648 59.375 L 1989.648 113.525 L 1981.592 113.525 L 1981.592 51.27 Z M 1997.705 113.525 L 1997.705 67.432 L 2020.508 67.432 L 2020.508 75.537 L 2005.762 75.537 L 2005.762 113.525 L 1997.705 113.525 Z" id="38" vector-effect="non-scaling-stroke"/><path d="M 2049.463 0 L 2057.52 0 L 2057.52 75.537 L 2018.555 75.537 L 2018.555 67.432 L 2049.463 67.432 L 2049.463 0 Z M 2018.555 51.27 L 2033.35 51.27 L 2033.35 0 L 2041.406 0 L 2041.406 59.375 L 2018.555 59.375 L 2018.555 51.27 Z" id="39" vector-effect="non-scaling-stroke"/><path d="M 2382.813 75.537 L 2343.896 75.537 L 2343.896 0 L 2351.953 0 L 2351.953 67.432 L 2382.813 67.432 L 2382.813 75.537 Z M 2382.813 59.375 L 2360.01 59.375 L 2360.01 0 L 2368.066 0 L 2368.066 51.27 L 2382.813 51.27 L 2382.813 59.375 Z" id="45" vector-effect="non-scaling-stroke"/><path d="M 2380.859 59.375 L 2380.859 51.27 L 2434.57 51.27 L 2434.57 59.375 L 2380.859 59.375 Z M 2380.859 75.537 L 2380.859 67.432 L 2434.57 67.432 L 2434.57 75.537 L 2380.859 75.537 Z" id="46" vector-effect="non-scaling-stroke"/><path d="M 2432.617 59.375 L 2432.617 51.27 L 2486.328 51.27 L 2486.328 59.375 L 2432.617 59.375 Z M 2432.617 75.537 L 2432.617 67.432 L 2486.328 67.432 L 2486.328 75.537 L 2432.617 75.537 Z" id="47" vector-effect="non-scaling-stroke"/><path d="M 2484.375 59.375 L 2484.375 51.27 L 2538.086 51.27 L 2538.086 59.375 L 2484.375 59.375 Z M 2484.375 75.537 L 2484.375 67.432 L 2538.086 67.432 L 2538.086 75.537 L 2484.375 75.537 Z" id="48" vector-effect="non-scaling-stroke"/><path d="M 2536.133 59.375 L 2536.133 51.27 L 2589.844 51.27 L 2589.844 59.375 L 2536.133 59.375 Z M 2536.133 75.537 L 2536.133 67.432 L 2589.844 67.432 L 2589.844 75.537 L 2536.133 75.537 Z" id="49" vector-effect="non-scaling-stroke"/><path d="M 2587.891 113.525 L 2587.891 0 L 2641.602 0 L 2641.602 113.525 L 2587.891 113.525 Z" id="50" vector-effect="non-scaling-stroke"/><path d="M 2639.648 113.525 L 2639.648 0 L 2693.359 0 L 2693.359 113.525 L 2639.648 113.525 Z" id="51" vector-effect="non-scaling-stroke"/><path d="M 2722.314 0 L 2730.371 0 L 2730.371 113.525 L 2722.314 113.525 L 2722.314 0 Z M 2706.201 0 L 2714.258 0 L 2714.258 113.525 L 2706.201 113.525 L 2706.201 0 Z" id="52" vector-effect="non-scaling-stroke"/><path d="M 2950.195 113.525 L 2950.195 0 L 3003.906 0 L 3003.906 113.525 L 2950.195 113.525 Z" id="57" vector-effect="non-scaling-stroke"/><path d="M 3001.953 113.525 L 3001.953 0 L 3055.664 0 L 3055.664 113.525 L 3001.953 113.525 Z" id="58" vector-effect="non-scaling-stroke"/><path d="M 3084.619 0 L 3092.676 0 L 3092.676 113.525 L 3084.619 113.525 L 3084.619 0 Z M 3068.506 0 L 3076.563 0 L 3076.563 113.525 L 3068.506 113.525 L 3068.506 0 Z" id="59" vector-effect="non-scaling-stroke"/><path d="M 3208.984 113.525 L 3208.984 0 L 3262.695 0 L 3262.695 113.525 L 3208.984 113.525 Z" id="62" vector-effect="non-scaling-stroke"/><path d="M 3260.742 113.525 L 3260.742 0 L 3314.453 0 L 3314.453 113.525 L 3260.742 113.525 Z" id="63" vector-effect="non-scaling-stroke"/><path d="M 3343.408 0 L 3351.465 0 L 3351.465 113.525 L 3343.408 113.525 L 3343.408 0 Z M 3327.295 0 L 3335.352 0 L 3335.352 113.525 L 3327.295 113.525 L 3327.295 0 Z" id="64" vector-effect="non-scaling-stroke"/><path d="M 3364.258 113.525 L 3364.258 0 L 3417.969 0 L 3417.969 113.525 L 3364.258 113.525 Z" id="65" vector-effect="non-scaling-stroke"/><path d="M 3416.016 113.525 L 3416.016 0 L 3469.727 0 L 3469.727 113.525 L 3416.016 113.525 Z" id="66" vector-effect="non-scaling-stroke"/><path d="M 3467.773 113.525 L 3467.773 0 L 3521.484 0 L 3521.484 113.525 L 3467.773 113.525 Z" id="67" vector-effect="non-scaling-stroke"/><path d="M 3519.531 113.525 L 3519.531 0 L 3573.242 0 L 3573.242 113.525 L 3519.531 113.525 Z" id="68" vector-effect="non-scaling-stroke"/><path d="M 3586.084 51.27 L 3625 51.27 L 3625 59.375 L 3594.141 59.375 L 3594.141 113.525 L 3586.084 113.525 L 3586.084 51.27 Z M 3602.197 113.525 L 3602.197 67.432 L 3625 67.432 L 3625 75.537 L 3610.254 75.537 L 3610.254 113.525 L 3602.197 113.525 Z" id="69" vector-effect="non-scaling-stroke"/><path d="M 3653.955 0 L 3662.012 0 L 3662.012 75.537 L 3623.047 75.537 L 3623.047 67.432 L 3653.955 67.432 L 3653.955 0 Z M 3623.047 51.27 L 3637.842 51.27 L 3637.842 0 L 3645.898 0 L 3645.898 59.375 L 3623.047 59.375 L 3623.047 51.27 Z" id="70" vector-effect="non-scaling-stroke"/><path d="M 3674.805 113.525 L 3674.805 0 L 3728.516 0 L 3728.516 113.525 L 3674.805 113.525 Z" id="71" vector-effect="non-scaling-stroke"/><path d="M 3726.563 113.525 L 3726.563 0 L 3780.273 0 L 3780.273 113.525 L 3726.563 113.525 Z" id="72" vector-effect="non-scaling-stroke"/><path d="M 3809.229 0 L 3817.285 0 L 3817.285 113.525 L 3809.229 113.525 L 3809.229 0 Z M 3793.115 0 L 3801.172 0 L 3801.172 113.525 L 3793.115 113.525 L 3793.115 0 Z" id="73" vector-effect="non-scaling-stroke"/><path d="M 3985.352 113.525 L 3985.352 0 L 4039.063 0 L 4039.063 113.525 L 3985.352 113.525 Z" id="77" vector-effect="non-scaling-stroke"/><path d="M 4037.109 113.525 L 4037.109 0 L 4090.82 0 L 4090.82 113.525 L 4037.109 113.525 Z" id="78" vector-effect="non-scaling-stroke"/><path d="M 4119.775 0 L 4127.832 0 L 4127.832 113.525 L 4119.775 113.525 L 4119.775 0 Z M 4103.662 0 L 4111.719 0 L 4111.719 113.525 L 4103.662 113.525 L 4103.662 0 Z" id="79" vector-effect="non-scaling-stroke"/><path d="M 4349.609 75.537 L 4310.693 75.537 L 4310.693 0 L 4318.75 0 L 4318.75 67.432 L 4349.609 67.432 L 4349.609 75.537 Z M 4349.609 59.375 L 4326.807 59.375 L 4326.807 0 L 4334.863 0 L 4334.863 51.27 L 4349.609 51.27 L 4349.609 59.375 Z" id="83" vector-effect="non-scaling-stroke"/><path d="M 4347.656 59.375 L 4347.656 51.27 L 4401.367 51.27 L 4401.367 59.375 L 4347.656 59.375 Z M 4347.656 75.537 L 4347.656 67.432 L 4401.367 67.432 L 4401.367 75.537 L 4347.656 75.537 Z" id="84" vector-effect="non-scaling-stroke"/><path d="M 4399.414 59.375 L 4399.414 51.27 L 4453.125 51.27 L 4453.125 59.375 L 4399.414 59.375 Z M 4399.414 75.537 L 4399.414 67.432 L 4453.125 67.432 L 4453.125 75.537 L 4399.414 75.537 Z" id="85" vector-effect="non-scaling-stroke"/><path d="M 4451.172 59.375 L 4451.172 51.27 L 4504.883 51.27 L 4504.883 59.375 L 4451.172 59.375 Z M 4451.172 75.537 L 4451.172 67.432 L 4504.883 67.432 L 4504.883 75.537 L 4451.172 75.537 Z" id="86" vector-effect="non-scaling-stroke"/><path d="M 4502.93 59.375 L 4502.93 51.27 L 4556.641 51.27 L 4556.641 59.375 L 4502.93 59.375 Z M 4502.93 75.537 L 4502.93 67.432 L 4556.641 67.432 L 4556.641 75.537 L 4502.93 75.537 Z" id="87" vector-effect="non-scaling-stroke"/><path d="M 4554.688 113.525 L 4554.688 0 L 4608.398 0 L 4608.398 113.525 L 4554.688 113.525 Z" id="88" vector-effect="non-scaling-stroke"/><path d="M 4606.445 113.525 L 4606.445 0 L 4660.156 0 L 4660.156 113.525 L 4606.445 113.525 Z" id="89" vector-effect="non-scaling-stroke"/><path d="M 4689.111 0 L 4697.168 0 L 4697.168 113.525 L 4689.111 113.525 L 4689.111 0 Z M 4672.998 0 L 4681.055 0 L 4681.055 113.525 L 4672.998 113.525 L 4672.998 0 Z" id="90" vector-effect="non-scaling-stroke"/></g>

<g transform="translate(0, 454.1)" id="svgGroup5" stroke-linecap="round" fill-rule="evenodd" font-size="9pt" stroke="#58DCBD" stroke-width="0.25mm" fill="#58DCBD" style="stroke:#58DCBD;stroke-width:0.25mm;fill:#58DCBD"><path d="M 0 113.525 L 0 0 L 53.711 0 L 53.711 113.525 L 0 113.525 Z" id="0" vector-effect="non-scaling-stroke"/><path d="M 51.758 113.525 L 51.758 0 L 105.469 0 L 105.469 113.525 L 51.758 113.525 Z" id="1" vector-effect="non-scaling-stroke"/><path d="M 134.424 0 L 142.48 0 L 142.48 113.525 L 134.424 113.525 L 134.424 0 Z M 118.311 0 L 126.367 0 L 126.367 113.525 L 118.311 113.525 L 118.311 0 Z" id="2" vector-effect="non-scaling-stroke"/><path d="M 414.063 113.525 L 414.063 0 L 467.773 0 L 467.773 113.525 L 414.063 113.525 Z" id="8" vector-effect="non-scaling-stroke"/><path d="M 465.82 113.525 L 465.82 0 L 519.531 0 L 519.531 113.525 L 465.82 113.525 Z" id="9" vector-effect="non-scaling-stroke"/><path d="M 548.486 0 L 556.543 0 L 556.543 113.525 L 548.486 113.525 L 548.486 0 Z M 532.373 0 L 540.43 0 L 540.43 113.525 L 532.373 113.525 L 532.373 0 Z" id="10" vector-effect="non-scaling-stroke"/><path d="M 672.852 113.525 L 672.852 0 L 726.563 0 L 726.563 113.525 L 672.852 113.525 Z" id="13" vector-effect="non-scaling-stroke"/><path d="M 724.609 113.525 L 724.609 0 L 778.32 0 L 778.32 113.525 L 724.609 113.525 Z" id="14" vector-effect="non-scaling-stroke"/><path d="M 807.275 0 L 815.332 0 L 815.332 113.525 L 807.275 113.525 L 807.275 0 Z M 791.162 0 L 799.219 0 L 799.219 113.525 L 791.162 113.525 L 791.162 0 Z" id="15" vector-effect="non-scaling-stroke"/><path d="M 881.836 75.537 L 842.92 75.537 L 842.92 0 L 850.977 0 L 850.977 67.432 L 881.836 67.432 L 881.836 75.537 Z M 881.836 59.375 L 859.033 59.375 L 859.033 0 L 867.09 0 L 867.09 51.27 L 881.836 51.27 L 881.836 59.375 Z" id="16" vector-effect="non-scaling-stroke"/><path d="M 879.883 113.525 L 879.883 0 L 933.594 0 L 933.594 113.525 L 879.883 113.525 Z" id="17" vector-effect="non-scaling-stroke"/><path d="M 931.641 113.525 L 931.641 0 L 985.352 0 L 985.352 113.525 L 931.641 113.525 Z" id="18" vector-effect="non-scaling-stroke"/><path d="M 983.398 113.525 L 983.398 0 L 1037.109 0 L 1037.109 113.525 L 983.398 113.525 Z" id="19" vector-effect="non-scaling-stroke"/><path d="M 1035.156 113.525 L 1035.156 0 L 1088.867 0 L 1088.867 113.525 L 1035.156 113.525 Z" id="20" vector-effect="non-scaling-stroke"/><path d="M 1086.914 113.525 L 1086.914 0 L 1140.625 0 L 1140.625 113.525 L 1086.914 113.525 Z" id="21" vector-effect="non-scaling-stroke"/><path d="M 1138.672 113.525 L 1138.672 0 L 1192.383 0 L 1192.383 113.525 L 1138.672 113.525 Z" id="22" vector-effect="non-scaling-stroke"/><path d="M 1205.225 51.27 L 1244.141 51.27 L 1244.141 59.375 L 1213.281 59.375 L 1213.281 113.525 L 1205.225 113.525 L 1205.225 51.27 Z M 1221.338 113.525 L 1221.338 67.432 L 1244.141 67.432 L 1244.141 75.537 L 1229.395 75.537 L 1229.395 113.525 L 1221.338 113.525 Z" id="23" vector-effect="non-scaling-stroke"/><path d="M 1273.096 0 L 1281.152 0 L 1281.152 75.537 L 1242.188 75.537 L 1242.188 67.432 L 1273.096 67.432 L 1273.096 0 Z M 1242.188 51.27 L 1256.982 51.27 L 1256.982 0 L 1265.039 0 L 1265.039 59.375 L 1242.188 59.375 L 1242.188 51.27 Z" id="24" vector-effect="non-scaling-stroke"/><path d="M 1293.945 113.525 L 1293.945 0 L 1347.656 0 L 1347.656 113.525 L 1293.945 113.525 Z" id="25" vector-effect="non-scaling-stroke"/><path d="M 1345.703 113.525 L 1345.703 0 L 1399.414 0 L 1399.414 113.525 L 1345.703 113.525 Z" id="26" vector-effect="non-scaling-stroke"/><path d="M 1412.256 51.27 L 1451.172 51.27 L 1451.172 59.375 L 1420.313 59.375 L 1420.313 113.525 L 1412.256 113.525 L 1412.256 51.27 Z M 1428.369 113.525 L 1428.369 67.432 L 1451.172 67.432 L 1451.172 75.537 L 1436.426 75.537 L 1436.426 113.525 L 1428.369 113.525 Z" id="27" vector-effect="non-scaling-stroke"/><path d="M 1480.127 0 L 1488.184 0 L 1488.184 75.537 L 1449.219 75.537 L 1449.219 67.432 L 1480.127 67.432 L 1480.127 0 Z M 1449.219 51.27 L 1464.014 51.27 L 1464.014 0 L 1472.07 0 L 1472.07 59.375 L 1449.219 59.375 L 1449.219 51.27 Z" id="28" vector-effect="non-scaling-stroke"/><path d="M 1552.734 113.525 L 1552.734 0 L 1606.445 0 L 1606.445 113.525 L 1552.734 113.525 Z" id="30" vector-effect="non-scaling-stroke"/><path d="M 1604.492 113.525 L 1604.492 0 L 1658.203 0 L 1658.203 113.525 L 1604.492 113.525 Z" id="31" vector-effect="non-scaling-stroke"/><path d="M 1687.158 113.525 L 1687.158 59.375 L 1656.25 59.375 L 1656.25 51.27 L 1695.215 51.27 L 1695.215 113.525 L 1687.158 113.525 Z M 1671.045 113.525 L 1671.045 75.537 L 1656.25 75.537 L 1656.25 67.432 L 1679.102 67.432 L 1679.102 113.525 L 1671.045 113.525 Z" id="32" vector-effect="non-scaling-stroke"/><path d="M 1863.281 113.525 L 1863.281 0 L 1916.992 0 L 1916.992 113.525 L 1863.281 113.525 Z" id="36" vector-effect="non-scaling-stroke"/><path d="M 1915.039 113.525 L 1915.039 0 L 1968.75 0 L 1968.75 113.525 L 1915.039 113.525 Z" id="37" vector-effect="non-scaling-stroke"/><path d="M 1997.705 0 L 2005.762 0 L 2005.762 113.525 L 1997.705 113.525 L 1997.705 0 Z M 1981.592 0 L 1989.648 0 L 1989.648 113.525 L 1981.592 113.525 L 1981.592 0 Z" id="38" vector-effect="non-scaling-stroke"/><path d="M 2329.102 113.525 L 2329.102 0 L 2382.813 0 L 2382.813 113.525 L 2329.102 113.525 Z" id="45" vector-effect="non-scaling-stroke"/><path d="M 2380.859 113.525 L 2380.859 0 L 2434.57 0 L 2434.57 113.525 L 2380.859 113.525 Z" id="46" vector-effect="non-scaling-stroke"/><path d="M 2432.617 113.525 L 2432.617 0 L 2486.328 0 L 2486.328 113.525 L 2432.617 113.525 Z" id="47" vector-effect="non-scaling-stroke"/><path d="M 2484.375 113.525 L 2484.375 0 L 2538.086 0 L 2538.086 113.525 L 2484.375 113.525 Z" id="48" vector-effect="non-scaling-stroke"/><path d="M 2536.133 113.525 L 2536.133 0 L 2589.844 0 L 2589.844 113.525 L 2536.133 113.525 Z" id="49" vector-effect="non-scaling-stroke"/><path d="M 2587.891 113.525 L 2587.891 0 L 2641.602 0 L 2641.602 113.525 L 2587.891 113.525 Z" id="50" vector-effect="non-scaling-stroke"/><path d="M 2639.648 113.525 L 2639.648 0 L 2693.359 0 L 2693.359 113.525 L 2639.648 113.525 Z" id="51" vector-effect="non-scaling-stroke"/><path d="M 2722.314 0 L 2730.371 0 L 2730.371 113.525 L 2722.314 113.525 L 2722.314 0 Z M 2706.201 0 L 2714.258 0 L 2714.258 113.525 L 2706.201 113.525 L 2706.201 0 Z" id="52" vector-effect="non-scaling-stroke"/><path d="M 2950.195 113.525 L 2950.195 0 L 3003.906 0 L 3003.906 113.525 L 2950.195 113.525 Z" id="57" vector-effect="non-scaling-stroke"/><path d="M 3001.953 113.525 L 3001.953 0 L 3055.664 0 L 3055.664 113.525 L 3001.953 113.525 Z" id="58" vector-effect="non-scaling-stroke"/><path d="M 3053.711 113.525 L 3053.711 0 L 3107.422 0 L 3107.422 113.525 L 3053.711 113.525 Z" id="59" vector-effect="non-scaling-stroke"/><path d="M 3105.469 113.525 L 3105.469 0 L 3159.18 0 L 3159.18 113.525 L 3105.469 113.525 Z" id="60" vector-effect="non-scaling-stroke"/><path d="M 3157.227 113.525 L 3157.227 0 L 3210.938 0 L 3210.938 113.525 L 3157.227 113.525 Z" id="61" vector-effect="non-scaling-stroke"/><path d="M 3208.984 113.525 L 3208.984 0 L 3262.695 0 L 3262.695 113.525 L 3208.984 113.525 Z" id="62" vector-effect="non-scaling-stroke"/><path d="M 3275.537 51.27 L 3314.453 51.27 L 3314.453 59.375 L 3283.594 59.375 L 3283.594 113.525 L 3275.537 113.525 L 3275.537 51.27 Z M 3291.65 113.525 L 3291.65 67.432 L 3314.453 67.432 L 3314.453 75.537 L 3299.707 75.537 L 3299.707 113.525 L 3291.65 113.525 Z" id="63" vector-effect="non-scaling-stroke"/><path d="M 3343.408 0 L 3351.465 0 L 3351.465 75.537 L 3312.5 75.537 L 3312.5 67.432 L 3343.408 67.432 L 3343.408 0 Z M 3312.5 51.27 L 3327.295 51.27 L 3327.295 0 L 3335.352 0 L 3335.352 59.375 L 3312.5 59.375 L 3312.5 51.27 Z" id="64" vector-effect="non-scaling-stroke"/><path d="M 3417.969 75.537 L 3379.053 75.537 L 3379.053 0 L 3387.109 0 L 3387.109 67.432 L 3417.969 67.432 L 3417.969 75.537 Z M 3417.969 59.375 L 3395.166 59.375 L 3395.166 0 L 3403.223 0 L 3403.223 51.27 L 3417.969 51.27 L 3417.969 59.375 Z" id="65" vector-effect="non-scaling-stroke"/><path d="M 3416.016 113.525 L 3416.016 0 L 3469.727 0 L 3469.727 113.525 L 3416.016 113.525 Z" id="66" vector-effect="non-scaling-stroke"/><path d="M 3467.773 113.525 L 3467.773 0 L 3521.484 0 L 3521.484 113.525 L 3467.773 113.525 Z" id="67" vector-effect="non-scaling-stroke"/><path d="M 3519.531 113.525 L 3519.531 0 L 3573.242 0 L 3573.242 113.525 L 3519.531 113.525 Z" id="68" vector-effect="non-scaling-stroke"/><path d="M 3571.289 113.525 L 3571.289 0 L 3625 0 L 3625 113.525 L 3571.289 113.525 Z" id="69" vector-effect="non-scaling-stroke"/><path d="M 3623.047 113.525 L 3623.047 0 L 3676.758 0 L 3676.758 113.525 L 3623.047 113.525 Z" id="70" vector-effect="non-scaling-stroke"/><path d="M 3674.805 113.525 L 3674.805 0 L 3728.516 0 L 3728.516 113.525 L 3674.805 113.525 Z" id="71" vector-effect="non-scaling-stroke"/><path d="M 3741.357 51.27 L 3780.273 51.27 L 3780.273 59.375 L 3749.414 59.375 L 3749.414 113.525 L 3741.357 113.525 L 3741.357 51.27 Z M 3757.471 113.525 L 3757.471 67.432 L 3780.273 67.432 L 3780.273 75.537 L 3765.527 75.537 L 3765.527 113.525 L 3757.471 113.525 Z" id="72" vector-effect="non-scaling-stroke"/><path d="M 3809.229 0 L 3817.285 0 L 3817.285 75.537 L 3778.32 75.537 L 3778.32 67.432 L 3809.229 67.432 L 3809.229 0 Z M 3778.32 51.27 L 3793.115 51.27 L 3793.115 0 L 3801.172 0 L 3801.172 59.375 L 3778.32 59.375 L 3778.32 51.27 Z" id="73" vector-effect="non-scaling-stroke"/><path d="M 3985.352 113.525 L 3985.352 0 L 4039.063 0 L 4039.063 113.525 L 3985.352 113.525 Z" id="77" vector-effect="non-scaling-stroke"/><path d="M 4037.109 113.525 L 4037.109 0 L 4090.82 0 L 4090.82 113.525 L 4037.109 113.525 Z" id="78" vector-effect="non-scaling-stroke"/><path d="M 4119.775 0 L 4127.832 0 L 4127.832 113.525 L 4119.775 113.525 L 4119.775 0 Z M 4103.662 0 L 4111.719 0 L 4111.719 113.525 L 4103.662 113.525 L 4103.662 0 Z" id="79" vector-effect="non-scaling-stroke"/><path d="M 4295.898 113.525 L 4295.898 0 L 4349.609 0 L 4349.609 113.525 L 4295.898 113.525 Z" id="83" vector-effect="non-scaling-stroke"/><path d="M 4347.656 113.525 L 4347.656 0 L 4401.367 0 L 4401.367 113.525 L 4347.656 113.525 Z" id="84" vector-effect="non-scaling-stroke"/><path d="M 4399.414 113.525 L 4399.414 0 L 4453.125 0 L 4453.125 113.525 L 4399.414 113.525 Z" id="85" vector-effect="non-scaling-stroke"/><path d="M 4451.172 113.525 L 4451.172 0 L 4504.883 0 L 4504.883 113.525 L 4451.172 113.525 Z" id="86" vector-effect="non-scaling-stroke"/><path d="M 4502.93 113.525 L 4502.93 0 L 4556.641 0 L 4556.641 113.525 L 4502.93 113.525 Z" id="87" vector-effect="non-scaling-stroke"/><path d="M 4554.688 113.525 L 4554.688 0 L 4608.398 0 L 4608.398 113.525 L 4554.688 113.525 Z" id="88" vector-effect="non-scaling-stroke"/><path d="M 4606.445 113.525 L 4606.445 0 L 4660.156 0 L 4660.156 113.525 L 4606.445 113.525 Z" id="89" vector-effect="non-scaling-stroke"/><path d="M 4689.111 0 L 4697.168 0 L 4697.168 113.525 L 4689.111 113.525 L 4689.111 0 Z M 4672.998 0 L 4681.055 0 L 4681.055 113.525 L 4672.998 113.525 L 4672.998 0 Z" id="90" vector-effect="non-scaling-stroke"/></g>

<g transform="translate(14.8, 567.625)" id="svgGroup6" stroke-linecap="round" fill-rule="evenodd" font-size="9pt" stroke="#60C689" stroke-width="0.25mm" fill="#60C689" style="stroke:#60C689;stroke-width:0.25mm;fill:#60C689"><path d="M 38.916 75.537 L 0 75.537 L 0 0 L 8.057 0 L 8.057 67.432 L 38.916 67.432 L 38.916 75.537 Z M 38.916 59.375 L 16.113 59.375 L 16.113 0 L 24.17 0 L 24.17 51.27 L 38.916 51.27 L 38.916 59.375 Z" id="0" vector-effect="non-scaling-stroke"/><path d="M 36.963 59.375 L 36.963 51.27 L 90.674 51.27 L 90.674 59.375 L 36.963 59.375 Z M 36.963 75.537 L 36.963 67.432 L 90.674 67.432 L 90.674 75.537 L 36.963 75.537 Z" id="1" vector-effect="non-scaling-stroke"/><path d="M 119.629 0 L 127.686 0 L 127.686 75.537 L 88.721 75.537 L 88.721 67.432 L 119.629 67.432 L 119.629 0 Z M 88.721 51.27 L 103.516 51.27 L 103.516 0 L 111.572 0 L 111.572 59.375 L 88.721 59.375 L 88.721 51.27 Z" id="2" vector-effect="non-scaling-stroke"/><path d="M 452.979 75.537 L 414.063 75.537 L 414.063 0 L 422.119 0 L 422.119 67.432 L 452.979 67.432 L 452.979 75.537 Z M 452.979 59.375 L 430.176 59.375 L 430.176 0 L 438.232 0 L 438.232 51.27 L 452.979 51.27 L 452.979 59.375 Z" id="8" vector-effect="non-scaling-stroke"/><path d="M 451.025 59.375 L 451.025 51.27 L 504.736 51.27 L 504.736 59.375 L 451.025 59.375 Z M 451.025 75.537 L 451.025 67.432 L 504.736 67.432 L 504.736 75.537 L 451.025 75.537 Z" id="9" vector-effect="non-scaling-stroke"/><path d="M 533.691 0 L 541.748 0 L 541.748 75.537 L 502.783 75.537 L 502.783 67.432 L 533.691 67.432 L 533.691 0 Z M 502.783 51.27 L 517.578 51.27 L 517.578 0 L 525.635 0 L 525.635 59.375 L 502.783 59.375 L 502.783 51.27 Z" id="10" vector-effect="non-scaling-stroke"/><path d="M 711.768 75.537 L 672.852 75.537 L 672.852 0 L 680.908 0 L 680.908 67.432 L 711.768 67.432 L 711.768 75.537 Z M 711.768 59.375 L 688.965 59.375 L 688.965 0 L 697.021 0 L 697.021 51.27 L 711.768 51.27 L 711.768 59.375 Z" id="13" vector-effect="non-scaling-stroke"/><path d="M 709.814 59.375 L 709.814 51.27 L 763.525 51.27 L 763.525 59.375 L 709.814 59.375 Z M 709.814 75.537 L 709.814 67.432 L 763.525 67.432 L 763.525 75.537 L 709.814 75.537 Z" id="14" vector-effect="non-scaling-stroke"/><path d="M 792.48 0 L 800.537 0 L 800.537 75.537 L 761.572 75.537 L 761.572 67.432 L 792.48 67.432 L 792.48 0 Z M 761.572 51.27 L 776.367 51.27 L 776.367 0 L 784.424 0 L 784.424 59.375 L 761.572 59.375 L 761.572 51.27 Z" id="15" vector-effect="non-scaling-stroke"/><path d="M 918.799 75.537 L 879.883 75.537 L 879.883 0 L 887.939 0 L 887.939 67.432 L 918.799 67.432 L 918.799 75.537 Z M 918.799 59.375 L 895.996 59.375 L 895.996 0 L 904.053 0 L 904.053 51.27 L 918.799 51.27 L 918.799 59.375 Z" id="17" vector-effect="non-scaling-stroke"/><path d="M 916.846 59.375 L 916.846 51.27 L 970.557 51.27 L 970.557 59.375 L 916.846 59.375 Z M 916.846 75.537 L 916.846 67.432 L 970.557 67.432 L 970.557 75.537 L 916.846 75.537 Z" id="18" vector-effect="non-scaling-stroke"/><path d="M 968.604 59.375 L 968.604 51.27 L 1022.314 51.27 L 1022.314 59.375 L 968.604 59.375 Z M 968.604 75.537 L 968.604 67.432 L 1022.314 67.432 L 1022.314 75.537 L 968.604 75.537 Z" id="19" vector-effect="non-scaling-stroke"/><path d="M 1020.361 59.375 L 1020.361 51.27 L 1074.072 51.27 L 1074.072 59.375 L 1020.361 59.375 Z M 1020.361 75.537 L 1020.361 67.432 L 1074.072 67.432 L 1074.072 75.537 L 1020.361 75.537 Z" id="20" vector-effect="non-scaling-stroke"/><path d="M 1072.119 59.375 L 1072.119 51.27 L 1125.83 51.27 L 1125.83 59.375 L 1072.119 59.375 Z M 1072.119 75.537 L 1072.119 67.432 L 1125.83 67.432 L 1125.83 75.537 L 1072.119 75.537 Z" id="21" vector-effect="non-scaling-stroke"/><path d="M 1123.877 59.375 L 1123.877 51.27 L 1177.588 51.27 L 1177.588 59.375 L 1123.877 59.375 Z M 1123.877 75.537 L 1123.877 67.432 L 1177.588 67.432 L 1177.588 75.537 L 1123.877 75.537 Z" id="22" vector-effect="non-scaling-stroke"/><path d="M 1206.543 0 L 1214.6 0 L 1214.6 75.537 L 1175.635 75.537 L 1175.635 67.432 L 1206.543 67.432 L 1206.543 0 Z M 1175.635 51.27 L 1190.43 51.27 L 1190.43 0 L 1198.486 0 L 1198.486 59.375 L 1175.635 59.375 L 1175.635 51.27 Z" id="23" vector-effect="non-scaling-stroke"/><path d="M 1332.861 75.537 L 1293.945 75.537 L 1293.945 0 L 1302.002 0 L 1302.002 67.432 L 1332.861 67.432 L 1332.861 75.537 Z M 1332.861 59.375 L 1310.059 59.375 L 1310.059 0 L 1318.115 0 L 1318.115 51.27 L 1332.861 51.27 L 1332.861 59.375 Z" id="25" vector-effect="non-scaling-stroke"/><path d="M 1330.908 59.375 L 1330.908 51.27 L 1384.619 51.27 L 1384.619 59.375 L 1330.908 59.375 Z M 1330.908 75.537 L 1330.908 67.432 L 1384.619 67.432 L 1384.619 75.537 L 1330.908 75.537 Z" id="26" vector-effect="non-scaling-stroke"/><path d="M 1413.574 0 L 1421.631 0 L 1421.631 75.537 L 1382.666 75.537 L 1382.666 67.432 L 1413.574 67.432 L 1413.574 0 Z M 1382.666 51.27 L 1397.461 51.27 L 1397.461 0 L 1405.518 0 L 1405.518 59.375 L 1382.666 59.375 L 1382.666 51.27 Z" id="27" vector-effect="non-scaling-stroke"/><path d="M 1591.65 75.537 L 1552.734 75.537 L 1552.734 0 L 1560.791 0 L 1560.791 67.432 L 1591.65 67.432 L 1591.65 75.537 Z M 1591.65 59.375 L 1568.848 59.375 L 1568.848 0 L 1576.904 0 L 1576.904 51.27 L 1591.65 51.27 L 1591.65 59.375 Z" id="30" vector-effect="non-scaling-stroke"/><path d="M 1589.697 59.375 L 1589.697 51.27 L 1643.408 51.27 L 1643.408 59.375 L 1589.697 59.375 Z M 1589.697 75.537 L 1589.697 67.432 L 1643.408 67.432 L 1643.408 75.537 L 1589.697 75.537 Z" id="31" vector-effect="non-scaling-stroke"/><path d="M 1672.363 0 L 1680.42 0 L 1680.42 75.537 L 1641.455 75.537 L 1641.455 67.432 L 1672.363 67.432 L 1672.363 0 Z M 1641.455 51.27 L 1656.25 51.27 L 1656.25 0 L 1664.307 0 L 1664.307 59.375 L 1641.455 59.375 L 1641.455 51.27 Z" id="32" vector-effect="non-scaling-stroke"/><path d="M 1902.197 75.537 L 1863.281 75.537 L 1863.281 0 L 1871.338 0 L 1871.338 67.432 L 1902.197 67.432 L 1902.197 75.537 Z M 1902.197 59.375 L 1879.395 59.375 L 1879.395 0 L 1887.451 0 L 1887.451 51.27 L 1902.197 51.27 L 1902.197 59.375 Z" id="36" vector-effect="non-scaling-stroke"/><path d="M 1900.244 59.375 L 1900.244 51.27 L 1953.955 51.27 L 1953.955 59.375 L 1900.244 59.375 Z M 1900.244 75.537 L 1900.244 67.432 L 1953.955 67.432 L 1953.955 75.537 L 1900.244 75.537 Z" id="37" vector-effect="non-scaling-stroke"/><path d="M 1982.91 0 L 1990.967 0 L 1990.967 75.537 L 1952.002 75.537 L 1952.002 67.432 L 1982.91 67.432 L 1982.91 0 Z M 1952.002 51.27 L 1966.797 51.27 L 1966.797 0 L 1974.854 0 L 1974.854 59.375 L 1952.002 59.375 L 1952.002 51.27 Z" id="38" vector-effect="non-scaling-stroke"/><path d="M 2368.018 75.537 L 2329.102 75.537 L 2329.102 0 L 2337.158 0 L 2337.158 67.432 L 2368.018 67.432 L 2368.018 75.537 Z M 2368.018 59.375 L 2345.215 59.375 L 2345.215 0 L 2353.271 0 L 2353.271 51.27 L 2368.018 51.27 L 2368.018 59.375 Z" id="45" vector-effect="non-scaling-stroke"/><path d="M 2366.064 59.375 L 2366.064 51.27 L 2419.775 51.27 L 2419.775 59.375 L 2366.064 59.375 Z M 2366.064 75.537 L 2366.064 67.432 L 2419.775 67.432 L 2419.775 75.537 L 2366.064 75.537 Z" id="46" vector-effect="non-scaling-stroke"/><path d="M 2417.822 59.375 L 2417.822 51.27 L 2471.533 51.27 L 2471.533 59.375 L 2417.822 59.375 Z M 2417.822 75.537 L 2417.822 67.432 L 2471.533 67.432 L 2471.533 75.537 L 2417.822 75.537 Z" id="47" vector-effect="non-scaling-stroke"/><path d="M 2469.58 59.375 L 2469.58 51.27 L 2523.291 51.27 L 2523.291 59.375 L 2469.58 59.375 Z M 2469.58 75.537 L 2469.58 67.432 L 2523.291 67.432 L 2523.291 75.537 L 2469.58 75.537 Z" id="48" vector-effect="non-scaling-stroke"/><path d="M 2521.338 59.375 L 2521.338 51.27 L 2575.049 51.27 L 2575.049 59.375 L 2521.338 59.375 Z M 2521.338 75.537 L 2521.338 67.432 L 2575.049 67.432 L 2575.049 75.537 L 2521.338 75.537 Z" id="49" vector-effect="non-scaling-stroke"/><path d="M 2573.096 59.375 L 2573.096 51.27 L 2626.807 51.27 L 2626.807 59.375 L 2573.096 59.375 Z M 2573.096 75.537 L 2573.096 67.432 L 2626.807 67.432 L 2626.807 75.537 L 2573.096 75.537 Z" id="50" vector-effect="non-scaling-stroke"/><path d="M 2624.854 59.375 L 2624.854 51.27 L 2678.564 51.27 L 2678.564 59.375 L 2624.854 59.375 Z M 2624.854 75.537 L 2624.854 67.432 L 2678.564 67.432 L 2678.564 75.537 L 2624.854 75.537 Z" id="51" vector-effect="non-scaling-stroke"/><path d="M 2707.52 0 L 2715.576 0 L 2715.576 75.537 L 2676.611 75.537 L 2676.611 67.432 L 2707.52 67.432 L 2707.52 0 Z M 2676.611 51.27 L 2691.406 51.27 L 2691.406 0 L 2699.463 0 L 2699.463 59.375 L 2676.611 59.375 L 2676.611 51.27 Z" id="52" vector-effect="non-scaling-stroke"/><path d="M 2989.111 75.537 L 2950.195 75.537 L 2950.195 0 L 2958.252 0 L 2958.252 67.432 L 2989.111 67.432 L 2989.111 75.537 Z M 2989.111 59.375 L 2966.309 59.375 L 2966.309 0 L 2974.365 0 L 2974.365 51.27 L 2989.111 51.27 L 2989.111 59.375 Z" id="57" vector-effect="non-scaling-stroke"/><path d="M 2987.158 59.375 L 2987.158 51.27 L 3040.869 51.27 L 3040.869 59.375 L 2987.158 59.375 Z M 2987.158 75.537 L 2987.158 67.432 L 3040.869 67.432 L 3040.869 75.537 L 2987.158 75.537 Z" id="58" vector-effect="non-scaling-stroke"/><path d="M 3038.916 59.375 L 3038.916 51.27 L 3092.627 51.27 L 3092.627 59.375 L 3038.916 59.375 Z M 3038.916 75.537 L 3038.916 67.432 L 3092.627 67.432 L 3092.627 75.537 L 3038.916 75.537 Z" id="59" vector-effect="non-scaling-stroke"/><path d="M 3090.674 59.375 L 3090.674 51.27 L 3144.385 51.27 L 3144.385 59.375 L 3090.674 59.375 Z M 3090.674 75.537 L 3090.674 67.432 L 3144.385 67.432 L 3144.385 75.537 L 3090.674 75.537 Z" id="60" vector-effect="non-scaling-stroke"/><path d="M 3142.432 59.375 L 3142.432 51.27 L 3196.143 51.27 L 3196.143 59.375 L 3142.432 59.375 Z M 3142.432 75.537 L 3142.432 67.432 L 3196.143 67.432 L 3196.143 75.537 L 3142.432 75.537 Z" id="61" vector-effect="non-scaling-stroke"/><path d="M 3194.189 59.375 L 3194.189 51.27 L 3247.9 51.27 L 3247.9 59.375 L 3194.189 59.375 Z M 3194.189 75.537 L 3194.189 67.432 L 3247.9 67.432 L 3247.9 75.537 L 3194.189 75.537 Z" id="62" vector-effect="non-scaling-stroke"/><path d="M 3276.855 0 L 3284.912 0 L 3284.912 75.537 L 3245.947 75.537 L 3245.947 67.432 L 3276.855 67.432 L 3276.855 0 Z M 3245.947 51.27 L 3260.742 51.27 L 3260.742 0 L 3268.799 0 L 3268.799 59.375 L 3245.947 59.375 L 3245.947 51.27 Z" id="63" vector-effect="non-scaling-stroke"/><path d="M 3454.932 75.537 L 3416.016 75.537 L 3416.016 0 L 3424.072 0 L 3424.072 67.432 L 3454.932 67.432 L 3454.932 75.537 Z M 3454.932 59.375 L 3432.129 59.375 L 3432.129 0 L 3440.186 0 L 3440.186 51.27 L 3454.932 51.27 L 3454.932 59.375 Z" id="66" vector-effect="non-scaling-stroke"/><path d="M 3452.979 59.375 L 3452.979 51.27 L 3506.689 51.27 L 3506.689 59.375 L 3452.979 59.375 Z M 3452.979 75.537 L 3452.979 67.432 L 3506.689 67.432 L 3506.689 75.537 L 3452.979 75.537 Z" id="67" vector-effect="non-scaling-stroke"/><path d="M 3504.736 59.375 L 3504.736 51.27 L 3558.447 51.27 L 3558.447 59.375 L 3504.736 59.375 Z M 3504.736 75.537 L 3504.736 67.432 L 3558.447 67.432 L 3558.447 75.537 L 3504.736 75.537 Z" id="68" vector-effect="non-scaling-stroke"/><path d="M 3556.494 59.375 L 3556.494 51.27 L 3610.205 51.27 L 3610.205 59.375 L 3556.494 59.375 Z M 3556.494 75.537 L 3556.494 67.432 L 3610.205 67.432 L 3610.205 75.537 L 3556.494 75.537 Z" id="69" vector-effect="non-scaling-stroke"/><path d="M 3608.252 59.375 L 3608.252 51.27 L 3661.963 51.27 L 3661.963 59.375 L 3608.252 59.375 Z M 3608.252 75.537 L 3608.252 67.432 L 3661.963 67.432 L 3661.963 75.537 L 3608.252 75.537 Z" id="70" vector-effect="non-scaling-stroke"/><path d="M 3660.01 59.375 L 3660.01 51.27 L 3713.721 51.27 L 3713.721 59.375 L 3660.01 59.375 Z M 3660.01 75.537 L 3660.01 67.432 L 3713.721 67.432 L 3713.721 75.537 L 3660.01 75.537 Z" id="71" vector-effect="non-scaling-stroke"/><path d="M 3742.676 0 L 3750.732 0 L 3750.732 75.537 L 3711.768 75.537 L 3711.768 67.432 L 3742.676 67.432 L 3742.676 0 Z M 3711.768 51.27 L 3726.563 51.27 L 3726.563 0 L 3734.619 0 L 3734.619 59.375 L 3711.768 59.375 L 3711.768 51.27 Z" id="72" vector-effect="non-scaling-stroke"/><path d="M 4024.268 75.537 L 3985.352 75.537 L 3985.352 0 L 3993.408 0 L 3993.408 67.432 L 4024.268 67.432 L 4024.268 75.537 Z M 4024.268 59.375 L 4001.465 59.375 L 4001.465 0 L 4009.521 0 L 4009.521 51.27 L 4024.268 51.27 L 4024.268 59.375 Z" id="77" vector-effect="non-scaling-stroke"/><path d="M 4022.314 59.375 L 4022.314 51.27 L 4076.025 51.27 L 4076.025 59.375 L 4022.314 59.375 Z M 4022.314 75.537 L 4022.314 67.432 L 4076.025 67.432 L 4076.025 75.537 L 4022.314 75.537 Z" id="78" vector-effect="non-scaling-stroke"/><path d="M 4104.98 0 L 4113.037 0 L 4113.037 75.537 L 4074.072 75.537 L 4074.072 67.432 L 4104.98 67.432 L 4104.98 0 Z M 4074.072 51.27 L 4088.867 51.27 L 4088.867 0 L 4096.924 0 L 4096.924 59.375 L 4074.072 59.375 L 4074.072 51.27 Z" id="79" vector-effect="non-scaling-stroke"/><path d="M 4334.814 75.537 L 4295.898 75.537 L 4295.898 0 L 4303.955 0 L 4303.955 67.432 L 4334.814 67.432 L 4334.814 75.537 Z M 4334.814 59.375 L 4312.012 59.375 L 4312.012 0 L 4320.068 0 L 4320.068 51.27 L 4334.814 51.27 L 4334.814 59.375 Z" id="83" vector-effect="non-scaling-stroke"/><path d="M 4332.861 59.375 L 4332.861 51.27 L 4386.572 51.27 L 4386.572 59.375 L 4332.861 59.375 Z M 4332.861 75.537 L 4332.861 67.432 L 4386.572 67.432 L 4386.572 75.537 L 4332.861 75.537 Z" id="84" vector-effect="non-scaling-stroke"/><path d="M 4384.619 59.375 L 4384.619 51.27 L 4438.33 51.27 L 4438.33 59.375 L 4384.619 59.375 Z M 4384.619 75.537 L 4384.619 67.432 L 4438.33 67.432 L 4438.33 75.537 L 4384.619 75.537 Z" id="85" vector-effect="non-scaling-stroke"/><path d="M 4436.377 59.375 L 4436.377 51.27 L 4490.088 51.27 L 4490.088 59.375 L 4436.377 59.375 Z M 4436.377 75.537 L 4436.377 67.432 L 4490.088 67.432 L 4490.088 75.537 L 4436.377 75.537 Z" id="86" vector-effect="non-scaling-stroke"/><path d="M 4488.135 59.375 L 4488.135 51.27 L 4541.846 51.27 L 4541.846 59.375 L 4488.135 59.375 Z M 4488.135 75.537 L 4488.135 67.432 L 4541.846 67.432 L 4541.846 75.537 L 4488.135 75.537 Z" id="87" vector-effect="non-scaling-stroke"/><path d="M 4539.893 59.375 L 4539.893 51.27 L 4593.604 51.27 L 4593.604 59.375 L 4539.893 59.375 Z M 4539.893 75.537 L 4539.893 67.432 L 4593.604 67.432 L 4593.604 75.537 L 4539.893 75.537 Z" id="88" vector-effect="non-scaling-stroke"/><path d="M 4591.65 59.375 L 4591.65 51.27 L 4645.361 51.27 L 4645.361 59.375 L 4591.65 59.375 Z M 4591.65 75.537 L 4591.65 67.432 L 4645.361 67.432 L 4645.361 75.537 L 4591.65 75.537 Z" id="89" vector-effect="non-scaling-stroke"/><path d="M 4674.316 0 L 4682.373 0 L 4682.373 75.537 L 4643.408 75.537 L 4643.408 67.432 L 4674.316 67.432 L 4674.316 0 Z M 4643.408 51.27 L 4658.203 51.27 L 4658.203 0 L 4666.26 0 L 4666.26 59.375 L 4643.408 59.375 L 4643.408 51.27 Z" id="90" vector-effect="non-scaling-stroke"/></g>
</g>
</svg>
